<svg width="2512" height="982" viewBox="0 0 2512 982" fill="none" xmlns="http://www.w3.org/2000/svg">
<path fill-rule="evenodd" clip-rule="evenodd" d="M0 2.53418C0 4.30018 2.153 3.99316 2.771 2.13916C2.989 1.48516 2.45401 0.951172 1.58301 0.951172C0.712008 0.951172 0 1.66318 0 2.53418ZM3.39301 5.53317C3.72701 6.40317 4 7.30317 4 7.53317C4 7.76317 4.675 7.95117 5.5 7.95117C6.325 7.95117 6.94699 8.28817 6.88199 8.70117C6.54199 10.8502 7.33801 12.3692 10.821 16.2232C12.922 18.5492 15.593 22.0262 16.756 23.9512C20.178 29.6182 39.961 48.4172 71.476 75.9512C74.938 78.9762 82.575 85.8332 88.447 91.1892C99.62 101.38 119.014 116.37 125 119.441C126.925 120.428 131.65 123.297 135.5 125.816C139.35 128.336 146.55 132.483 151.5 135.033C156.45 137.583 162.075 140.642 164 141.83C168.352 144.517 178.719 149.483 184.298 151.553C211.407 161.612 222.092 164.68 244.865 168.945C265.013 172.718 305.709 175.823 331.5 175.555L341.5 175.451L341.455 248.451C341.216 635.655 340.685 700.752 337.557 726.082C336.615 733.711 333.362 748.927 330.423 759.451C327.804 768.83 326.976 771.188 322.518 781.951C317.335 794.464 316.898 795.462 315.95 796.951C315.425 797.776 314.549 799.576 314.004 800.951C310.086 810.831 298.339 827.877 291.399 833.752C278.486 844.684 265.792 852.72 250 859.96C233.259 867.635 198.113 868.651 174.33 862.146C167.021 860.147 155.005 854.587 147.112 849.551C140.539 845.357 125.369 830.354 120.005 822.741C115.227 815.961 112.857 809.674 109.527 794.951C106.169 780.102 109.097 752.033 115.413 738.51C117.922 733.139 120.51 729.721 126.233 724.217C138.535 712.385 149.126 708.496 167.335 709.125C179.405 709.542 182.255 710.702 190.153 718.413C196.865 724.966 200.723 732.449 201.531 740.48C202.406 749.179 204.06 756.001 206.112 759.376C207.673 761.943 208.005 762.101 208.597 760.558C209.447 758.344 208.415 740.334 207.021 733.027C205.575 725.448 202.475 720.707 192.816 711.3C186.232 704.887 183.492 702.907 179.973 702.016C177.513 701.392 174.466 700.448 173.203 699.917C171.94 699.386 166.207 698.951 160.465 698.951C151.608 698.951 148.619 699.404 140.762 701.938C129.144 705.685 126.031 707.607 116.276 717.05C109.828 723.293 107.47 726.498 103.068 735.009C94.965 750.673 92.093 762.528 92.058 780.451C92.002 809.339 101.351 831.265 122.992 853.001C137.447 867.519 148.3 874.124 171.01 882.223C183.346 886.622 191.4 888.633 208 891.46C223.5 894.1 264.551 893.13 273 889.925C274.375 889.403 279.386 888.547 284.135 888.022C294.903 886.831 303.468 884.282 316.5 878.388C318.15 877.642 322.328 876.104 325.784 874.969C329.24 873.835 335.99 870.836 340.784 868.305C345.578 865.774 353.325 861.68 358 859.207C362.675 856.734 368.525 853.295 371 851.564C373.475 849.833 376.625 847.839 378 847.133C379.375 846.426 385.9 842.954 392.5 839.417C399.1 835.879 408.775 830.95 414 828.463C419.225 825.976 424.85 823.185 426.5 822.262C430.954 819.77 443.665 813.555 450.5 810.527C456.189 808.006 458.36 807.031 469 802.213C477.86 798.201 492.545 792.092 495 791.396C496.375 791.006 504.223 787.556 512.44 783.729C527.185 776.862 538.124 772.514 543 771.583C544.375 771.321 550.522 768.596 556.661 765.528C562.799 762.461 568.367 759.951 569.033 759.951C570.395 759.951 584.077 752.707 588.154 749.826C589.614 748.795 591.5 747.951 592.345 747.951C593.19 747.951 594.125 747.558 594.422 747.077C594.719 746.596 597.333 745.023 600.231 743.581C606.105 740.658 607.433 739.865 614.252 735.201C616.866 733.413 619.3 731.951 619.661 731.951C620.023 731.951 622.702 730.151 625.616 727.951C628.53 725.751 631.163 723.951 631.466 723.951C632.452 723.951 649.047 710.982 657.886 703.303C667.026 695.364 681.444 680.121 688.552 670.884C702.867 652.28 719.137 619.939 727.758 592.951C737.267 563.183 739.978 548.156 742.065 513.65C743.059 497.213 742.622 460.124 741.383 455.759C741.118 454.829 740.023 447.404 738.948 439.259C736.619 421.613 733.573 404.903 732.213 402.317C731.674 401.291 730.899 398.443 730.492 395.989C730.086 393.536 729.368 390.836 728.897 389.989C728.426 389.143 726.651 384.176 724.952 378.951C721.407 368.049 718.14 359.612 714.692 352.451C713.367 349.701 711.462 345.651 710.458 343.451C708.402 338.949 697.661 320.782 695.504 318.159C694.732 317.22 691.715 313.203 688.8 309.232C685.885 305.262 680.286 298.259 676.358 293.671C668.788 284.828 643.829 260.742 637.138 255.821C633.535 253.171 633.235 252.618 633.987 249.995C634.444 248.401 636.434 244.34 638.409 240.971C640.384 237.601 642 234.56 642 234.213C642 233.866 642.827 231.753 643.837 229.517C644.847 227.281 646.705 222.751 647.966 219.451C649.226 216.151 651.271 210.976 652.509 207.951C653.748 204.926 656.66 196.376 658.982 188.951C661.303 181.526 663.604 174.326 664.095 172.951C666.191 167.073 668.803 150.797 668.934 142.79C669.012 138.027 669.506 131.502 670.032 128.29C670.558 125.079 670.991 120.342 670.994 117.765C671.003 110.818 675.324 94.3672 679.088 86.9512C688.736 67.9412 711.061 45.9412 726 40.7212C729.025 39.6652 732.4 38.2302 733.5 37.5352C735.636 36.1832 747.213 32.6092 753 31.5142C754.925 31.1502 761.425 30.4412 767.445 29.9392C787.733 28.2462 805.541 31.5322 824.839 40.5292C832.75 44.2182 837 44.8912 837 42.4572C837 39.6712 827.776 34.1302 809 25.6392C796.951 20.1892 794.058 19.1592 783.5 16.5602C763.786 11.7072 755.543 10.7112 734 10.5782C710.065 10.4302 708.826 10.6742 690 19.2652C686.975 20.6462 681.693 23.3622 678.262 25.3022C671.271 29.2542 655.341 35.8422 650 36.9882C631.871 40.8802 631.238 40.9332 620.148 39.4702C605.446 37.5312 600.2 36.2482 595.322 33.3952C587.49 28.8142 585.959 31.3662 591.49 39.7822C594.583 44.4882 595.765 49.9342 595.315 57.4102C594.848 65.1582 591.569 69.8352 581.468 77.1552C576.717 80.5972 561.038 88.9452 559.302 88.9562C558.861 88.9592 554.257 90.5412 549.072 92.4722C527.882 100.362 503.105 104.941 465.5 107.914C433.803 110.421 310.729 112.371 278.5 110.878C245.566 109.352 202.93 104.657 184 100.473C182.625 100.169 177.675 99.0752 173 98.0432C159.445 95.0502 150.533 92.4852 134.5 86.9632C104.821 76.7392 101.267 75.3912 94.764 71.8872C93.809 71.3722 92.459 70.9472 91.764 70.9422C91.069 70.9382 86.675 69.0882 82 66.8332C77.325 64.5772 72.569 62.3732 71.431 61.9352C66.672 60.1032 44.575 41.7902 32.394 29.5842C12.453 9.60217 6.29501 3.95117 4.46201 3.95117C3.34501 3.95117 2.98801 4.47817 3.39301 5.53317ZM1791.43 9.94318C1783.69 10.3122 1776.81 10.9512 1776.14 11.3622C1775.48 11.7742 1773.26 12.3152 1771.22 12.5652C1758.49 14.1242 1741.39 18.9242 1728 24.6902C1708.29 33.1792 1703.18 35.9402 1697.9 40.9522C1692.62 45.9612 1691.83 48.1812 1696.15 45.8692C1697.43 45.1842 1702.76 43.1722 1707.99 41.3972C1713.22 39.6222 1721.19 36.8182 1725.69 35.1662C1755.52 24.2312 1795.82 31.1212 1824 51.9782C1829.97 56.3952 1845 70.9352 1845 72.2932C1845 72.6122 1848.04 78.1852 1851.76 84.6772C1855.48 91.1682 1859.05 98.2732 1859.69 100.465C1863.84 114.658 1865.95 128.57 1865.98 142.091C1866.01 152.021 1868.71 164.502 1872.33 171.397C1875.27 177.01 1884.95 187.951 1886.97 187.951C1887.46 187.951 1890.56 189.746 1893.86 191.94C1897.17 194.134 1902.26 196.855 1905.19 197.987C1912.89 200.971 1922.74 205.929 1924.01 207.465C1924.87 208.504 1924 209.35 1919.94 211.389C1914.33 214.204 1910.78 217.378 1893.56 234.951C1880.86 247.907 1871.1 258.891 1866.16 265.789C1864.32 268.353 1861.26 272.35 1859.37 274.67C1854.39 280.751 1837.6 305.935 1833.64 313.235C1831.79 316.654 1828.24 323.123 1825.76 327.611C1819.95 338.09 1813.03 352.421 1809.18 361.951C1803.54 375.886 1801.12 382.439 1800.49 385.451C1800.14 387.101 1799.27 390.026 1798.55 391.951C1796.52 397.377 1793.32 408.826 1791.99 415.451C1789.85 426.049 1789.63 426.469 1786.41 426.287C1784.81 426.197 1781.49 425.678 1779.04 425.133C1770.6 423.259 1768.72 424.204 1755.55 436.928C1728.25 463.317 1717.61 472.951 1715.77 472.951C1713.86 472.951 1715.35 474.916 1719.25 477.544C1724.5 481.08 1731.35 486.43 1735.99 490.613C1737.92 492.352 1742.38 495.952 1745.9 498.613C1751.92 503.158 1755.87 506.008 1771.23 516.9C1777.96 521.675 1789.96 533.149 1791.79 536.551C1792.4 537.693 1793.35 542.207 1793.89 546.582C1794.44 550.957 1795.37 555.784 1795.95 557.309C1796.53 558.834 1797 561.304 1797 562.798C1797 564.293 1797.7 567.976 1798.55 570.983C1799.41 573.99 1800.57 578.701 1801.14 581.45C1801.71 584.199 1802.75 587.574 1803.45 588.95C1804.14 590.326 1805.49 593.926 1806.45 596.951C1811.55 612.996 1819.82 631.331 1827.45 643.451C1829.87 647.301 1832.51 651.655 1833.31 653.126C1840.29 665.924 1867.65 696.899 1882.5 708.822C1900.32 723.123 1933.79 744.845 1942.05 747.468C1943.29 747.861 1946.43 749.437 1949.03 750.97C1951.63 752.504 1960 756.549 1967.63 759.959C1975.26 763.37 1984.42 767.495 1988 769.125C1995.06 772.346 1996.74 773.084 2008 777.926C2012.12 779.699 2016.96 781.781 2018.75 782.551C2024.56 785.054 2028.39 786.611 2034.5 788.95C2037.8 790.214 2043.88 792.81 2048 794.72C2052.12 796.629 2057.14 798.775 2059.14 799.489C2065.81 801.863 2078.03 807.641 2118.42 827.509C2145.58 840.873 2156.42 846.68 2165.03 852.469C2167.87 854.384 2170.56 855.951 2171.01 855.951C2171.46 855.951 2174.9 857.694 2178.66 859.825C2198.35 870.978 2207.46 874.954 2231 882.673C2243.68 886.831 2255.49 888.964 2277.33 891.047C2291.06 892.355 2328.78 891.721 2334 890.093C2335.92 889.493 2340.65 888.362 2344.5 887.579C2357.04 885.029 2363.18 882.885 2373.58 877.431C2385.78 871.032 2395.23 864.709 2403.81 857.197C2413.63 848.601 2415.55 846.451 2421.24 837.661C2428.17 826.951 2431.8 819.27 2436.73 804.951C2439.1 798.06 2439.31 796.072 2439.34 780.451C2439.37 764.479 2439.2 762.937 2436.57 754.951C2431.04 738.141 2424.87 727.619 2413.35 715.34C2400.56 701.693 2376.31 695.661 2354.87 700.792C2345.49 703.037 2339.56 706.416 2333.87 712.763C2325.8 721.751 2321.57 734.392 2323.08 745.032C2323.51 748.012 2323.89 753.578 2323.93 757.401C2324.05 768.877 2325.79 763.711 2326.93 748.483C2328.15 732.201 2330.06 727.105 2337.95 718.999C2341.69 715.161 2344.03 713.712 2348.62 712.396C2351.86 711.468 2355.02 710.291 2355.66 709.779C2356.3 709.268 2359.97 708.585 2363.82 708.263C2376.09 707.234 2392.45 712.509 2401.79 720.507C2409.94 727.479 2418.45 743.637 2422.54 759.903C2425.33 771.02 2424.07 790.021 2419.57 804.653C2414.5 821.151 2396.5 841.972 2378.44 852.234C2372.9 855.378 2368.02 857.951 2367.59 857.951C2367.15 857.951 2365.38 858.571 2363.65 859.328C2357.2 862.15 2345.16 864.881 2334.08 866.036C2312.01 868.337 2288.36 864.019 2270.1 854.355C2244.11 840.601 2228.09 824.172 2215.58 798.451C2201.71 769.918 2195.39 745.048 2191.45 703.424C2188.43 671.505 2186.97 513.328 2189.65 508.587C2191.12 505.993 2205.71 491.478 2212.91 485.451C2216.2 482.701 2218.91 480.143 2218.94 479.766C2218.98 479.389 2216.19 476.23 2212.75 472.746C2198.4 458.193 2186.18 444.33 2181.38 437.129C2174.48 426.801 2171.87 418.262 2169.1 396.951C2166.62 377.921 2167.28 178.274 2169.83 175.724C2170.23 175.324 2182.02 175.477 2196.03 176.063C2220.05 177.069 2240.5 176.464 2257 174.261C2259.47 173.93 2262.51 173.531 2263.75 173.373C2278.15 171.542 2305.19 166.418 2308 164.989C2308.82 164.569 2311.53 163.924 2314 163.557C2316.47 163.189 2320.75 162.031 2323.5 160.982C2326.25 159.934 2332.44 157.884 2337.25 156.426C2342.06 154.969 2346.24 153.366 2346.55 152.864C2346.86 152.362 2347.79 151.951 2348.6 151.951C2349.42 151.951 2353.1 150.555 2356.79 148.849C2360.48 147.142 2366.42 144.419 2370 142.798C2373.58 141.176 2377.29 139.422 2378.25 138.9C2379.21 138.378 2381.01 137.431 2382.25 136.796C2383.49 136.16 2385.18 135.28 2386 134.839C2387.86 133.848 2400.33 126.604 2404.81 123.91C2408.71 121.57 2433.04 103.28 2434.5 101.595C2435.05 100.959 2437.08 99.1432 2439 97.5592C2440.92 95.9752 2447.21 90.3532 2452.97 85.0652C2468.81 70.5162 2475.82 64.2262 2485.96 55.4512C2491.05 51.0512 2498.25 43.6262 2501.96 38.9512C2508.39 30.8652 2512.81 23.4262 2511.79 22.4112C2511.54 22.1542 2505.34 27.6772 2498.03 34.6842C2483.54 48.5752 2476.95 54.0292 2467 60.3592C2458.81 65.5692 2438.56 74.7942 2425.5 79.2662C2420 81.1492 2408.97 84.9382 2401 87.6862C2377.26 95.8672 2360.65 100.421 2347.39 102.382C2341.95 103.186 2333 104.511 2327.5 105.326C2294.37 110.237 2226.07 113.699 2185.39 112.53C2173.35 112.184 2148.42 111.521 2130 111.056C2082.92 109.869 2033.96 105.389 2015.17 100.549C2012.05 99.7462 2007.25 98.5452 2004.5 97.8802C1997.93 96.2912 1981.78 90.9282 1980.5 89.9132C1979.95 89.4752 1977.02 88.1492 1974 86.9652C1960.79 81.7932 1944.19 69.9422 1940.62 63.1332C1939.06 60.1502 1938.85 58.2832 1939.39 52.0002C1939.74 47.8482 1940.69 42.2422 1941.51 39.5422C1942.95 34.8042 1943.47 29.9512 1942.55 29.9512C1942.31 29.9512 1939.5 31.4722 1936.3 33.3312C1923.4 40.8432 1898.58 42.2982 1883.09 36.4512C1866.37 30.1442 1860.01 27.5022 1857 25.6112C1855.08 24.4032 1852.15 22.7632 1850.5 21.9682C1848.85 21.1732 1846.38 19.8032 1845 18.9222C1840.01 15.7282 1827.36 10.8922 1821.5 9.93817C1815.1 8.89817 1813.29 8.89818 1791.43 9.94318ZM1038.5 161.076C1028.6 161.42 1012.12 161.758 1001.87 161.826C987.999 161.919 982.971 162.281 982.173 163.242C980.518 165.237 983.504 166.573 996.097 169.473C1009.68 172.602 1012.63 173.771 1021 179.354C1024.58 181.738 1029.56 184.846 1032.07 186.259C1038.34 189.778 1046.33 197.137 1050.59 203.312C1052.54 206.138 1055.44 210.251 1057.03 212.451C1058.63 214.651 1062.7 222.574 1066.08 230.057L1072.23 243.664L1084.36 244.345C1100.14 245.231 1115.06 248.01 1127.45 252.37C1135.54 255.217 1138.22 256.701 1141.83 260.312C1145.69 264.172 1146.34 265.435 1146.78 269.986C1147.05 272.865 1146.77 278.872 1146.14 283.336C1145.51 287.799 1143.87 299.695 1142.48 309.771C1141.1 319.847 1138.8 334.472 1137.38 342.271C1135.95 350.07 1134.18 359.826 1133.45 363.951C1128.3 392.909 1121.31 420.305 1116.72 429.451C1113.49 435.891 1114.24 435.466 1086 446.947C1060.44 457.341 1060.95 456.979 1067.4 460.007C1070.52 461.474 1074.86 465.248 1080.42 471.329C1095.03 487.308 1110.3 506.982 1112.72 512.951C1113.5 514.876 1115.57 517.656 1117.32 519.128L1120.5 521.805L1121.11 563.128C1121.47 587.262 1122.14 605.491 1122.74 606.951C1123.29 608.326 1124.08 611.926 1124.49 614.951C1125.55 622.838 1128.73 635.708 1130.93 640.951C1131.96 643.426 1133.92 648.151 1135.28 651.451C1136.63 654.751 1139.49 660.664 1141.62 664.591C1147.9 676.144 1168.52 696.476 1190 712.277C1195.22 716.121 1203.55 723.181 1208.5 727.965L1217.5 736.664L1226 737.824C1236.31 739.232 1240.03 740.472 1246.62 744.701C1249.4 746.488 1252.31 747.951 1253.09 747.952C1254.28 747.953 1254.45 743.79 1254.2 721.702C1253.81 688.073 1254.92 690.825 1232.81 668.774C1223.81 659.796 1213.87 648.989 1210.71 644.758C1202.33 633.526 1192.48 613.426 1189.95 602.429C1185.6 583.457 1184.95 576.907 1184.49 547.701L1184.04 518.951L1241.77 518.95H1299.5L1298.91 585.7C1298.48 633.5 1297.97 653.587 1297.11 656.451C1295.02 663.351 1293.86 666.285 1290.95 671.966C1289.4 674.999 1286.89 681.074 1285.36 685.466C1282.69 693.15 1282.59 694.123 1282.78 711.258C1282.91 723.333 1283.46 730.944 1284.49 734.902C1285.32 738.113 1286 742.561 1286 744.786C1286 747.012 1286.41 749.089 1286.92 749.401C1288.58 750.427 1291.04 746.951 1290.41 744.461C1289.67 741.495 1292.87 739.55 1297.36 740.238C1301.7 740.901 1316.68 732.901 1328.52 723.6C1333.53 719.668 1340.88 714.201 1344.86 711.451C1370.05 694.045 1392.22 676.573 1395.9 671.225C1397.33 669.149 1399.12 667.061 1399.87 666.584C1400.62 666.107 1400.83 665.432 1400.34 665.084C1395.57 661.743 1385.2 644.126 1381.64 633.308C1371.62 602.887 1371.11 595.222 1370.92 472.451C1370.67 318.328 1370.55 310.041 1368.45 305.701C1367.45 303.639 1366.36 301.951 1366.02 301.951C1365.69 301.951 1362.88 299.813 1359.78 297.201C1356.68 294.589 1352.43 291.552 1350.32 290.453C1348.22 289.355 1345.9 287.889 1345.17 287.197C1344.44 286.504 1342.87 285.425 1341.67 284.799C1338.7 283.238 1321.72 270.598 1315 264.935C1311.97 262.388 1305.45 257.467 1300.5 254C1295.55 250.533 1287.22 244.291 1282 240.128C1265.65 227.101 1259.63 222.445 1255.5 219.626C1249.56 215.569 1242.19 210.085 1234.95 204.322C1228.49 199.184 1216.7 190.827 1201.26 180.436C1190.66 173.309 1171.97 165.147 1162.13 163.347C1156.65 162.345 1141.28 161.798 1107.5 161.403C1081.65 161.101 1059.6 160.764 1058.5 160.653C1057.4 160.542 1048.4 160.732 1038.5 161.076ZM1376 162.079C1360.83 163.082 1347.69 168.214 1323.03 182.764C1321.31 183.78 1322.47 185.874 1329.65 194.693C1334.03 200.07 1349 229.487 1349 232.719C1349 235.162 1353.42 243.947 1354.87 244.4C1355.77 244.679 1360.03 245.579 1364.35 246.4C1384.68 250.266 1402.31 261.142 1416.87 278.801C1423.16 286.427 1424.03 290.255 1425.09 314.951C1426.26 341.969 1427.8 720.39 1426.81 736.535C1426.41 743.089 1425.36 752.276 1424.49 756.951C1423.61 761.626 1422.45 769.276 1421.9 773.951C1421.36 778.626 1420.49 783.801 1419.97 785.451C1417.77 792.479 1412.34 827.788 1409.99 850.451C1408.5 864.812 1408.81 912.583 1410.49 927.451C1411.3 934.601 1411.97 949.113 1411.98 959.701C1411.99 970.289 1412.34 978.951 1412.75 978.951C1413.92 978.951 1417.76 971.105 1419.88 964.395C1420.93 961.064 1422.1 954.764 1422.48 950.395C1422.85 946.026 1423.8 939.751 1424.57 936.451C1425.35 933.151 1426.62 927.526 1427.4 923.951C1428.79 917.552 1437.7 881.606 1445.14 852.451C1447.54 843.025 1450.52 834.046 1453.13 828.385C1454.16 826.149 1455 823.988 1455 823.583C1455 822.51 1463.05 806.55 1463.89 805.955C1464.28 805.678 1466.06 803.4 1467.83 800.893C1472.84 793.829 1483.71 787.951 1491.77 787.951C1496.3 787.951 1497.3 790.939 1497.13 803.951C1496.96 816.371 1498.32 833.754 1501.06 854.451C1502.16 862.701 1503.57 874.514 1504.2 880.701C1504.82 886.889 1505.6 891.951 1505.92 891.95C1506.24 891.95 1507.53 886.185 1508.78 879.141C1510.04 872.096 1511.7 864.109 1512.49 861.391C1513.27 858.674 1515.04 849.926 1516.42 841.951C1519.39 824.714 1521.78 816.185 1529.69 794.504C1531.76 788.811 1532.58 776.507 1531.95 760.451C1531.65 752.751 1531.27 712.026 1531.11 669.951C1530.81 590.689 1530.65 576.083 1529.49 525.117L1528.8 494.783L1534.65 495.456C1537.87 495.826 1542.14 496.543 1544.14 497.049C1558.27 500.619 1605.56 502.461 1621.5 500.061C1631.76 498.516 1647.93 492.151 1651.01 488.444C1651.78 487.511 1654.68 485.273 1657.46 483.471C1662.76 480.027 1684.9 458.384 1698.53 443.324C1709.3 431.42 1726 410.577 1730.56 403.329C1732.6 400.096 1736.61 393.851 1739.48 389.451C1742.35 385.051 1746.17 378.526 1747.96 374.951C1749.75 371.376 1752.01 367.326 1752.98 365.951C1753.95 364.576 1758.63 355.605 1763.4 346.014C1768.17 336.424 1772.44 328.099 1772.91 327.514C1773.37 326.93 1774.09 325.326 1774.5 323.951C1775.5 320.609 1782.97 305.592 1783.95 304.955C1784.38 304.678 1785.75 302.436 1787 299.973C1788.25 297.511 1790.31 293.911 1791.58 291.973C1792.84 290.036 1794.16 287.281 1794.51 285.851C1795.14 283.265 1795.1 283.247 1787.82 282.685C1780.4 282.112 1770.4 279.841 1755 275.229C1734.49 269.09 1714.76 256.364 1694.27 236.072L1683.05 224.951H1678.15C1673.17 224.951 1667.54 226.787 1663 229.886C1655.91 234.729 1651.69 235.396 1628 235.424C1559.19 235.506 1447.61 232.807 1445.71 231.016C1445.27 230.606 1446.62 229.137 1448.71 227.752C1450.79 226.367 1454.48 223.572 1456.91 221.54C1459.33 219.509 1462.79 217.231 1464.59 216.478C1466.39 215.725 1472.12 211.923 1477.33 208.03C1482.53 204.137 1487.05 200.951 1487.38 200.951C1488.07 200.951 1499.65 193.382 1505.5 189.103C1511.72 184.552 1530.76 172.951 1532.01 172.951C1532.63 172.951 1535.56 171.838 1538.54 170.477C1541.51 169.116 1545.09 167.716 1546.48 167.366C1547.88 167.016 1549.27 166.329 1549.57 165.84C1549.87 165.351 1550.99 164.951 1552.06 164.951C1554.82 164.951 1554.52 161.964 1551.75 161.893C1534.94 161.457 1382.98 161.618 1376 162.079ZM2062.84 259.746C2062.45 309.734 2063.42 304.501 2052.43 315.951C2049 319.526 2044.53 324.476 2042.48 326.951C2040.44 329.426 2023.83 346.751 2005.56 365.451C1971 400.851 1965.78 406.271 1953.75 419.316C1940.78 433.38 1892.18 481.951 1891.07 481.951C1889.5 481.951 1889.76 478.733 1891.54 476.193C1892.39 474.981 1893.71 470.493 1894.46 466.22C1895.22 461.947 1896.26 457.326 1896.78 455.951C1897.31 454.576 1898.27 450.301 1898.93 446.451C1899.59 442.601 1900.8 437.201 1901.6 434.451C1907.91 412.996 1910.51 405.034 1912.4 401.411C1913.25 399.783 1915.12 395.526 1916.55 391.951C1917.99 388.376 1919.78 384.101 1920.52 382.451C1921.26 380.801 1923.07 376.751 1924.54 373.451C1929.66 361.964 1939.03 343.847 1944.5 334.871C1947.52 329.901 1950 325.548 1950 325.197C1950 324.496 1950.82 323.224 1962.98 304.951C1967.55 298.076 1973.44 289.751 1976.05 286.451C1981.9 279.066 2003.9 257.53 2013.87 249.435C2030.01 236.324 2043.8 225.683 2049.5 221.941C2052.8 219.775 2055.95 217.564 2056.5 217.027C2057.05 216.49 2058.78 216.028 2060.34 216.001L2063.18 215.951L2062.84 259.746ZM465.397 227.285C467.654 229.119 471.525 231.836 474 233.323C476.475 234.81 479.625 236.865 481 237.89C482.375 238.914 487.55 242.344 492.5 245.513C497.45 248.682 503.509 252.889 505.964 254.863C508.419 256.836 513.199 260.476 516.586 262.951C519.973 265.426 525.282 269.476 528.383 271.951C536.353 278.311 559.943 302.484 564.003 308.451C565.874 311.201 567.876 313.939 568.452 314.536C571.83 318.034 585.567 338.189 590.135 346.349C597.319 359.181 609 384.509 609 387.253C609 388.04 609.869 390.882 610.932 393.568C617.063 409.066 623.543 435.438 626.015 454.951C628.953 478.137 628.127 523.461 624.384 544.451C620.037 568.832 616.011 587.251 614.332 590.451C613.754 591.551 612.985 594.014 612.621 595.924C611.956 599.425 606.151 616.044 603.007 623.451C602.073 625.651 600.262 630.101 598.982 633.339C597.703 636.578 595.229 641.303 593.486 643.839C591.743 646.376 588.201 652.182 585.616 656.742C581.546 663.919 576.156 671.397 556.994 696.451C553.095 701.548 521.85 732.951 520.677 732.951C519.79 732.951 503.649 745.464 502.049 747.392C501.337 748.25 500.346 748.951 499.846 748.951C499.346 748.951 495.648 751.426 491.629 754.451C487.61 757.476 483.947 759.951 483.49 759.951C483.032 759.951 481.947 760.58 481.079 761.35C479.252 762.967 474.885 765.488 463 771.786C458.325 774.263 450.45 778.437 445.5 781.063C432.045 788.2 427.859 790.072 424 790.676L420.5 791.224L423.437 788.088C425.052 786.362 426.921 784.951 427.588 784.951C428.256 784.951 429.705 783.488 430.808 781.701C431.911 779.914 434.57 775.976 436.716 772.951C443.185 763.836 447.992 753.918 453.681 737.951C457.6 726.951 460.056 710.687 460.161 695.042C460.199 689.317 460.588 683.389 461.024 681.868C461.46 680.346 461.612 678.896 461.361 678.646C460.448 677.732 460.141 630.039 459.956 460.451C459.729 251.769 459.811 223.951 460.647 223.951C461.003 223.951 463.14 225.451 465.397 227.285ZM687.671 225.403C687.921 225.979 690.434 228.251 693.256 230.451C699.415 235.252 705.902 241.677 712 249.017C714.475 251.996 718.561 256.687 721.08 259.442C734.45 274.064 753.821 301.683 764.33 321.106C770.978 333.393 781 353.956 781 355.308C781 355.674 781.864 357.88 782.92 360.212C785.748 366.454 788.731 380.875 789.9 393.951C791.334 410.007 791.893 478.127 790.961 523.451C790.04 568.25 787.571 596.193 782.918 614.451C780.723 623.067 776.537 637.587 774.846 642.451C774.273 644.101 773.468 647.026 773.058 648.951C769.655 664.918 758.394 690.04 749.13 702.329C743.869 709.309 735.1 717.966 728.875 722.326C726.314 724.12 727.002 726.951 729.999 726.951C731.132 726.951 735.984 724.572 740.78 721.663C745.576 718.755 751.975 715.105 755 713.552C758.025 711.998 761.21 710.103 762.079 709.339C762.947 708.576 763.966 707.951 764.344 707.951C765.368 707.951 778.174 698.585 789.391 689.632C799.296 681.726 817.203 669.521 822.114 667.329C827.331 665 840.685 655.56 848.626 648.586C861.449 637.327 865.362 630.429 868.43 613.678C869.797 606.216 870.025 595.932 869.96 544.82C869.918 511.773 870.126 484.492 870.421 484.196C871.314 483.304 879.093 488.9 886 495.402C889.575 498.767 895.641 504.205 899.48 507.486C909.909 516.397 922.886 529.722 966.742 576.551C975.55 585.956 983.586 594.956 984.599 596.551C985.613 598.146 988.109 601.476 990.147 603.951C992.185 606.426 995.454 611.482 997.411 615.186C1002.97 625.705 1003.35 633.138 1002.59 715.951L1001.94 786.451L1004.33 793.451C1005.65 797.301 1008.41 804.501 1010.46 809.451C1015.52 821.639 1022.74 849.584 1024.94 865.451C1025.93 872.601 1027.25 879.718 1027.87 881.266C1028.49 882.814 1029 885.375 1029 886.957C1029 888.539 1029.45 890.111 1030 890.451C1030.62 890.832 1031 889.098 1031 885.921C1031 883.09 1031.88 875.526 1032.96 869.112C1035.55 853.732 1037.1 830.891 1037 809.656C1036.95 800.193 1036.93 791.904 1036.96 791.236C1036.98 790.568 1037.87 789.555 1038.94 788.985C1040.4 788.201 1042.77 788.568 1048.69 790.497C1057.66 793.423 1063.6 797.159 1066.49 801.695C1073.18 812.223 1075.86 817.059 1077.7 821.951C1080.87 830.4 1088.67 855.457 1091.09 864.951C1092.28 869.626 1094.06 876.601 1095.05 880.451C1098.79 894.999 1100.12 900.671 1101.5 907.951C1102.92 915.45 1105.06 924.967 1108.92 940.951C1110.04 945.626 1112.38 956.426 1114.1 964.951C1117.49 981.72 1118.93 985.28 1119.12 977.401C1119.31 969.834 1119.74 963.758 1121.18 947.951C1122.6 932.312 1123.02 864.567 1121.8 847.772C1120.95 836.226 1118.53 818.151 1116.52 808.451C1115.73 804.601 1114.81 799.426 1114.48 796.951C1114.15 794.476 1113.49 791.551 1113.02 790.451C1112.54 789.351 1111.42 784.176 1110.54 778.951C1108.75 768.313 1108.78 768.505 1106.52 757.451C1105.63 753.051 1104.47 746.526 1103.97 742.951C1103.46 739.376 1102.61 734.426 1102.07 731.951C1101.53 729.476 1100.82 710.801 1100.51 690.451C1099.99 657.303 1098.77 632.938 1097.44 629.071C1097.18 628.312 1096.29 623.137 1095.46 617.571C1093.81 606.5 1090.66 596.273 1085.71 585.951C1078.91 571.754 1056.46 538.219 1047.22 528.451C1045.65 526.801 1041.94 522.076 1038.96 517.951C1035.98 513.826 1033.18 510.296 1032.74 510.107C1032.3 509.917 1029.63 506.317 1026.81 502.107C1020.51 492.693 1006.91 474.572 1005.81 474.118C1005.36 473.934 1005 472.775 1005 471.542C1005 469.284 1028.83 445.056 1048 427.811C1052.68 423.61 1061.81 414.964 1068.31 408.599C1074.8 402.233 1081.87 395.638 1084.01 393.941C1091.14 388.295 1094.14 383.475 1096.65 373.606C1097.93 368.571 1098.98 363.394 1098.99 362.102C1099 360.81 1099.73 358.221 1100.62 356.348C1101.5 354.476 1102.01 352.112 1101.75 351.096C1101.32 349.473 1103.68 325.829 1105.57 312.77C1106.19 308.526 1106 307.855 1103.53 305.566C1102.03 304.178 1099.16 302.504 1097.15 301.845C1092.63 300.365 1056.31 282.495 1054.1 280.668C1053.22 279.936 1051.15 278.761 1049.5 278.056C1042.36 275.005 1020.92 258.267 1009.88 247.125C990.717 227.782 989.548 227.1 982.085 230.908C971.129 236.497 968.341 237.058 951.862 236.986C943.261 236.949 930.661 236.486 923.862 235.958C917.063 235.429 907 234.97 901.5 234.938C893.911 234.894 887.642 234.029 875.5 231.353C866.7 229.413 858.375 227.758 857 227.673C854.068 227.494 847.079 228.565 838.05 230.578C825.74 233.321 806.94 234.178 785.029 232.994C751.684 231.193 714.515 228.282 707.5 226.922C698.222 225.124 687.185 224.279 687.671 225.403ZM1220.63 283.423C1223.86 285.883 1226.95 288.261 1227.5 288.708C1228.05 289.155 1229.59 290.279 1230.93 291.205C1232.26 292.132 1236.31 295.555 1239.93 298.812C1243.54 302.069 1248.8 306.47 1251.62 308.592C1254.43 310.715 1260.73 316.119 1265.62 320.601C1270.5 325.084 1276.75 330.444 1279.5 332.512C1282.25 334.581 1286.37 337.908 1288.66 339.906C1290.94 341.903 1294.65 344.418 1296.9 345.494C1299.14 346.571 1300.98 347.733 1300.99 348.079C1301.01 349.24 1298.36 350.914 1294.13 352.404C1291.83 353.217 1287.59 355.404 1284.72 357.264C1277.67 361.828 1265.03 368.951 1263.97 368.951C1262.52 368.951 1235.83 387.186 1229.21 392.698C1225.77 395.557 1217.46 401.722 1210.73 406.399C1204 411.076 1194.9 418.101 1190.5 422.01C1181.35 430.139 1178.18 432.464 1177.36 431.647C1177.05 431.331 1177.77 428.016 1178.98 424.282C1181.04 417.908 1183.97 405.869 1186.23 394.451C1186.78 391.701 1187.8 387.426 1188.5 384.951C1189.2 382.476 1190.07 377.976 1190.44 374.951C1191.5 366.253 1197.07 341.27 1203.72 315.451C1206.12 306.101 1208.76 294.626 1209.59 289.951C1210.42 285.276 1211.28 280.889 1211.51 280.201C1212.26 278.006 1214.61 278.837 1220.63 283.423ZM1546.5 285.716C1550.96 288.164 1561.92 293.035 1567.05 294.848C1570.05 295.909 1575.65 297.964 1579.5 299.415C1586.19 301.938 1602.16 307.654 1608.5 309.798C1610.15 310.355 1618.03 312.875 1626 315.398C1633.97 317.92 1641.85 320.457 1643.5 321.036C1645.15 321.616 1648.75 322.779 1651.5 323.622C1654.25 324.465 1656.95 325.5 1657.5 325.922C1658.05 326.344 1660.97 327.238 1664 327.908C1667.03 328.578 1670.97 329.789 1672.78 330.598L1676.05 332.069L1673.84 335.26C1672.63 337.015 1668.44 342.051 1664.53 346.451C1660.62 350.851 1655.87 356.471 1653.96 358.939C1644.59 371.096 1625.26 391.055 1603.5 411.068C1594.67 419.187 1574.54 432.334 1561.19 438.699C1554.76 441.764 1548.96 444.382 1548.29 444.517C1547.63 444.651 1544.77 445.53 1541.94 446.47C1532.78 449.513 1533.51 456.65 1533.43 363.062L1533.37 281.245L1538.93 282.932C1541.99 283.86 1545.4 285.113 1546.5 285.716ZM870.427 288.834C871.133 289.975 885.036 296.643 891.5 298.941C894.25 299.918 901.794 303.245 908.264 306.334C914.734 309.424 920.291 311.951 920.613 311.951C920.935 311.951 922.616 312.56 924.349 313.304C926.082 314.049 929.975 315.69 933 316.952C936.025 318.214 940.75 320.235 943.5 321.444C946.25 322.653 955.025 326.439 963 329.857C970.975 333.275 982.45 338.489 988.5 341.443C994.55 344.398 1002.09 347.678 1005.27 348.734C1008.44 349.789 1011.25 350.864 1011.5 351.122C1012.13 351.752 1002.54 359.968 997.37 363.223C995.099 364.654 989.113 369.678 984.068 374.388C979.023 379.098 974.493 382.951 974.001 382.951C973.509 382.951 970.155 385.184 966.549 387.914C952.53 398.525 926.902 413.23 912.361 419.006C908.118 420.692 902.135 423.317 899.065 424.84C895.995 426.363 890.337 428.571 886.492 429.746C882.646 430.921 877.717 432.798 875.539 433.917C869.57 436.982 867.894 436.682 868.743 432.701C869.125 430.913 869.343 425.851 869.228 421.451C869.113 417.051 868.789 385.214 868.506 350.701C868.032 292.704 868.261 285.329 870.427 288.834ZM2062.42 425.56C2062.25 452.294 2061.83 474.457 2061.48 474.81C2060.77 475.521 1973 476.712 1973 476.011C1973 475.769 1975.41 473.294 1978.36 470.511C1981.31 467.728 1987.27 461.191 1991.61 455.984C1999.38 446.666 2008.67 436.33 2020.04 424.379C2023.22 421.04 2028.51 414.965 2031.79 410.879C2035.07 406.794 2040.1 401.201 2042.96 398.451C2045.82 395.701 2050.45 390.526 2053.26 386.951C2057.29 381.812 2061.65 377.161 2062.61 376.973C2062.68 376.961 2062.59 398.825 2062.42 425.56ZM1275.41 395.718C1279.31 398.305 1285.82 403.688 1289.88 407.678L1297.27 414.933L1296.81 441.437C1296.55 456.014 1296.15 468.133 1295.92 468.369C1294.93 469.352 1202.85 467.205 1201.82 466.174C1201.07 465.42 1202.66 463.33 1207.26 459.022C1210.84 455.675 1215.95 449.677 1218.61 445.693C1224.37 437.067 1231.08 427.842 1232.59 426.451C1233.18 425.901 1237.67 420.951 1242.55 415.451C1247.43 409.951 1251.93 405.001 1252.54 404.451C1253.15 403.901 1255.87 400.751 1258.57 397.451C1261.28 394.151 1263.95 391.118 1264.5 390.712C1265.89 389.685 1267.3 390.332 1275.41 395.718ZM2064.32 531.451C2064.22 533.101 2064.12 555.301 2064.09 580.784C2064.02 657.073 2065.89 693.069 2071.05 714.588C2072.12 719.063 2073 723.374 2073 724.168C2073 726.338 2083.71 752.582 2086.74 757.851C2091.54 766.184 2102.77 782.37 2106.93 786.951C2112.74 793.353 2110.16 793.289 2096.65 786.696C2090.52 783.703 2084.15 780.94 2082.5 780.556C2077.88 779.48 2044.54 762.355 2035 756.159C2015.32 743.376 2004.97 735.971 1999 730.396C1996.53 728.084 1991.78 723.951 1988.46 721.213C1973.61 708.96 1939.99 672.638 1935.54 664.035C1934.77 662.531 1932.04 658.189 1929.49 654.385C1924.66 647.182 1909.25 616.77 1906.46 608.951C1905.58 606.476 1904.06 601.069 1903.09 596.935C1902.12 592.802 1900.85 588.527 1900.28 587.435C1899.7 586.344 1898.9 583.426 1898.5 580.951C1898.1 578.476 1897.19 575.023 1896.47 573.277C1895.75 571.532 1894.88 566.807 1894.53 562.777C1894.19 558.748 1893.48 554.101 1892.97 552.451C1892.46 550.801 1891.91 544.951 1891.77 539.451L1891.5 529.451L1920 528.933C1935.68 528.648 1974.6 528.423 2006.5 528.433L2064.5 528.451L2064.32 531.451Z" fill="white"/>
</svg>
