<svg width="2512" height="981" viewBox="0 0 2512 981" fill="none" xmlns="http://www.w3.org/2000/svg">
<path fill-rule="evenodd" clip-rule="evenodd" d="M0 1.58301C0 3.34901 2.153 3.04199 2.771 1.18799C2.989 0.533988 2.45401 0 1.58301 0C0.712008 0 0 0.712008 0 1.58301ZM3.39301 4.582C3.72701 5.452 4 6.352 4 6.582C4 6.812 4.675 7 5.5 7C6.325 7 6.94699 7.337 6.88199 7.75C6.54199 9.899 7.33801 11.418 10.821 15.272C12.922 17.598 15.593 21.075 16.756 23C20.178 28.667 39.961 47.466 71.476 75C74.938 78.025 82.575 84.882 88.447 90.238C99.62 100.429 119.014 115.419 125 118.49C126.925 119.477 131.65 122.346 135.5 124.865C139.35 127.385 146.55 131.532 151.5 134.082C156.45 136.632 162.075 139.691 164 140.879C168.352 143.566 178.719 148.532 184.298 150.602C211.407 160.661 222.092 163.729 244.865 167.994C265.013 171.767 305.709 174.872 331.5 174.604L341.5 174.5L341.455 247.5C341.216 634.704 340.685 699.801 337.557 725.131C336.615 732.76 333.362 747.976 330.423 758.5C327.804 767.879 326.976 770.237 322.518 781C317.335 793.513 316.898 794.511 315.95 796C315.425 796.825 314.549 798.625 314.004 800C310.086 809.88 298.339 826.926 291.399 832.801C278.486 843.733 265.792 851.769 250 859.009C233.259 866.684 198.113 867.7 174.33 861.195C167.021 859.196 155.005 853.636 147.112 848.6C140.539 844.406 125.369 829.403 120.005 821.79C115.227 815.01 112.857 808.723 109.527 794C106.169 779.151 109.097 751.082 115.413 737.559C117.922 732.188 120.51 728.77 126.233 723.266C138.535 711.434 149.126 707.545 167.335 708.174C179.405 708.591 182.255 709.751 190.153 717.462C196.865 724.015 200.723 731.498 201.531 739.529C202.406 748.228 204.06 755.05 206.112 758.425C207.673 760.992 208.005 761.15 208.597 759.607C209.447 757.393 208.415 739.383 207.021 732.076C205.575 724.497 202.475 719.756 192.816 710.349C186.232 703.936 183.492 701.956 179.973 701.065C177.513 700.441 174.466 699.497 173.203 698.966C171.94 698.435 166.207 698 160.465 698C151.608 698 148.619 698.453 140.762 700.987C129.144 704.734 126.031 706.656 116.276 716.099C109.828 722.342 107.47 725.547 103.068 734.058C94.965 749.722 92.093 761.577 92.058 779.5C92.002 808.388 101.351 830.314 122.992 852.05C137.447 866.568 148.3 873.173 171.01 881.272C183.346 885.671 191.4 887.682 208 890.509C223.5 893.149 264.551 892.179 273 888.974C274.375 888.452 279.386 887.596 284.135 887.071C294.903 885.88 303.468 883.331 316.5 877.437C318.15 876.691 322.328 875.153 325.784 874.018C329.24 872.884 335.99 869.885 340.784 867.354C345.578 864.823 353.325 860.729 358 858.256C362.675 855.783 368.525 852.344 371 850.613C373.475 848.882 376.625 846.888 378 846.182C379.375 845.475 385.9 842.003 392.5 838.466C399.1 834.928 408.775 829.999 414 827.512C419.225 825.025 424.85 822.234 426.5 821.311C430.954 818.819 443.665 812.604 450.5 809.576C456.189 807.055 458.36 806.08 469 801.262C477.86 797.25 492.545 791.141 495 790.445C496.375 790.055 504.223 786.605 512.44 782.778C527.185 775.911 538.124 771.563 543 770.632C544.375 770.37 550.522 767.645 556.661 764.577C562.799 761.51 568.367 759 569.033 759C570.395 759 584.077 751.756 588.154 748.875C589.614 747.844 591.5 747 592.345 747C593.19 747 594.125 746.607 594.422 746.126C594.719 745.645 597.333 744.072 600.231 742.63C606.105 739.707 607.433 738.914 614.252 734.25C616.866 732.462 619.3 731 619.661 731C620.023 731 622.702 729.2 625.616 727C628.53 724.8 631.163 723 631.466 723C632.452 723 649.047 710.031 657.886 702.352C667.026 694.413 681.444 679.17 688.552 669.933C702.867 651.329 719.137 618.988 727.758 592C737.267 562.232 739.978 547.205 742.065 512.699C743.059 496.262 742.622 459.173 741.383 454.808C741.118 453.878 740.023 446.453 738.948 438.308C736.619 420.662 733.573 403.952 732.213 401.366C731.674 400.34 730.899 397.492 730.492 395.038C730.086 392.585 729.368 389.885 728.897 389.038C728.426 388.192 726.651 383.225 724.952 378C721.407 367.098 718.14 358.661 714.692 351.5C713.367 348.75 711.462 344.7 710.458 342.5C708.402 337.998 697.661 319.831 695.504 317.208C694.732 316.269 691.715 312.252 688.8 308.281C685.885 304.311 680.286 297.308 676.358 292.72C668.788 283.877 643.829 259.791 637.138 254.87C633.535 252.22 633.235 251.667 633.987 249.044C634.444 247.45 636.434 243.389 638.409 240.02C640.384 236.65 642 233.609 642 233.262C642 232.915 642.827 230.802 643.837 228.566C644.847 226.33 646.705 221.8 647.966 218.5C649.226 215.2 651.271 210.025 652.509 207C653.748 203.975 656.66 195.425 658.982 188C661.303 180.575 663.604 173.375 664.095 172C666.191 166.122 668.803 149.846 668.934 141.839C669.012 137.076 669.506 130.551 670.032 127.339C670.558 124.128 670.991 119.391 670.994 116.814C671.003 109.867 675.324 93.416 679.088 86C688.736 66.99 711.061 44.99 726 39.77C729.025 38.714 732.4 37.279 733.5 36.584C735.636 35.232 747.213 31.658 753 30.563C754.925 30.199 761.425 29.49 767.445 28.988C787.733 27.295 805.541 30.581 824.839 39.578C832.75 43.267 837 43.94 837 41.506C837 38.72 827.776 33.179 809 24.688C796.951 19.238 794.058 18.208 783.5 15.609C763.786 10.756 755.543 9.76001 734 9.62701C710.065 9.47901 708.826 9.723 690 18.314C686.975 19.695 681.693 22.411 678.262 24.351C671.271 28.303 655.341 34.891 650 36.037C631.871 39.929 631.238 39.982 620.148 38.519C605.446 36.58 600.2 35.297 595.322 32.444C587.49 27.863 585.959 30.415 591.49 38.831C594.583 43.537 595.765 48.983 595.315 56.459C594.848 64.207 591.569 68.884 581.468 76.204C576.717 79.646 561.038 87.994 559.302 88.005C558.861 88.008 554.257 89.59 549.072 91.521C527.882 99.411 503.105 103.99 465.5 106.963C433.803 109.47 310.729 111.42 278.5 109.927C245.566 108.401 202.93 103.706 184 99.522C182.625 99.218 177.675 98.124 173 97.092C159.445 94.099 150.533 91.534 134.5 86.012C104.821 75.788 101.267 74.44 94.764 70.936C93.809 70.421 92.459 69.996 91.764 69.991C91.069 69.987 86.675 68.137 82 65.882C77.325 63.626 72.569 61.422 71.431 60.984C66.672 59.152 44.575 40.839 32.394 28.633C12.453 8.651 6.29501 3 4.46201 3C3.34501 3 2.98801 3.527 3.39301 4.582ZM1791.43 8.992C1783.69 9.361 1776.81 10 1776.14 10.411C1775.48 10.823 1773.26 11.364 1771.22 11.614C1758.49 13.173 1741.39 17.973 1728 23.739C1708.29 32.228 1703.18 34.989 1697.9 40.001C1692.62 45.01 1691.83 47.23 1696.15 44.918C1697.43 44.233 1702.76 42.221 1707.99 40.446C1713.22 38.671 1721.19 35.867 1725.69 34.215C1755.52 23.28 1795.82 30.17 1824 51.027C1829.97 55.444 1845 69.984 1845 71.342C1845 71.661 1848.04 77.234 1851.76 83.726C1855.48 90.217 1859.05 97.322 1859.69 99.514C1863.84 113.707 1865.95 127.619 1865.98 141.14C1866.01 151.07 1868.71 163.551 1872.33 170.446C1875.27 176.059 1884.95 187 1886.97 187C1887.46 187 1890.56 188.795 1893.86 190.989C1897.17 193.183 1902.26 195.904 1905.19 197.036C1912.89 200.02 1922.74 204.978 1924.01 206.514C1924.87 207.553 1924 208.399 1919.94 210.438C1914.33 213.253 1910.78 216.427 1893.56 234C1880.86 246.956 1871.1 257.94 1866.16 264.838C1864.32 267.402 1861.26 271.399 1859.37 273.719C1854.39 279.8 1837.6 304.984 1833.64 312.284C1831.79 315.703 1828.24 322.172 1825.76 326.66C1819.95 337.139 1813.03 351.47 1809.18 361C1803.54 374.935 1801.12 381.488 1800.49 384.5C1800.14 386.15 1799.27 389.075 1798.55 391C1796.52 396.426 1793.32 407.875 1791.99 414.5C1789.85 425.098 1789.63 425.518 1786.41 425.336C1784.81 425.246 1781.49 424.727 1779.04 424.182C1770.6 422.308 1768.72 423.253 1755.55 435.977C1728.25 462.366 1717.61 472 1715.77 472C1713.86 472 1715.35 473.965 1719.25 476.593C1724.5 480.129 1731.35 485.479 1735.99 489.662C1737.92 491.401 1742.38 495.001 1745.9 497.662C1751.92 502.207 1755.87 505.057 1771.23 515.949C1777.96 520.724 1789.96 532.198 1791.79 535.6C1792.4 536.742 1793.35 541.256 1793.89 545.631C1794.44 550.006 1795.37 554.833 1795.95 556.358C1796.53 557.883 1797 560.353 1797 561.847C1797 563.342 1797.7 567.025 1798.55 570.032C1799.41 573.039 1800.57 577.75 1801.14 580.499C1801.71 583.248 1802.75 586.623 1803.45 587.999C1804.14 589.375 1805.49 592.975 1806.45 596C1811.55 612.045 1819.82 630.38 1827.45 642.5C1829.87 646.35 1832.51 650.704 1833.31 652.175C1840.29 664.973 1867.65 695.948 1882.5 707.871C1900.32 722.172 1933.79 743.894 1942.05 746.517C1943.29 746.91 1946.43 748.486 1949.03 750.019C1951.63 751.553 1960 755.598 1967.63 759.008C1975.26 762.419 1984.42 766.544 1988 768.174C1995.06 771.395 1996.74 772.133 2008 776.975C2012.12 778.748 2016.96 780.83 2018.75 781.6C2024.56 784.103 2028.39 785.66 2034.5 787.999C2037.8 789.263 2043.88 791.859 2048 793.769C2052.12 795.678 2057.14 797.824 2059.14 798.538C2065.81 800.912 2078.03 806.69 2118.42 826.558C2145.58 839.922 2156.42 845.729 2165.03 851.518C2167.87 853.433 2170.56 855 2171.01 855C2171.46 855 2174.9 856.743 2178.66 858.874C2198.35 870.027 2207.46 874.003 2231 881.722C2243.68 885.88 2255.49 888.013 2277.33 890.096C2291.06 891.404 2328.78 890.77 2334 889.142C2335.92 888.542 2340.65 887.411 2344.5 886.628C2357.04 884.078 2363.18 881.934 2373.58 876.48C2385.78 870.081 2395.23 863.758 2403.81 856.246C2413.63 847.65 2415.55 845.5 2421.24 836.71C2428.17 826 2431.8 818.319 2436.73 804C2439.1 797.109 2439.31 795.121 2439.34 779.5C2439.37 763.528 2439.2 761.986 2436.57 754C2431.04 737.19 2424.87 726.668 2413.35 714.389C2400.56 700.742 2376.31 694.71 2354.87 699.841C2345.49 702.086 2339.56 705.465 2333.87 711.812C2325.8 720.8 2321.57 733.441 2323.08 744.081C2323.51 747.061 2323.89 752.627 2323.93 756.45C2324.05 767.926 2325.79 762.76 2326.93 747.532C2328.15 731.25 2330.06 726.154 2337.95 718.048C2341.69 714.21 2344.03 712.761 2348.62 711.445C2351.86 710.517 2355.02 709.34 2355.66 708.828C2356.3 708.317 2359.97 707.634 2363.82 707.312C2376.09 706.283 2392.45 711.558 2401.79 719.556C2409.94 726.528 2418.45 742.686 2422.54 758.952C2425.33 770.069 2424.07 789.07 2419.57 803.702C2414.5 820.2 2396.5 841.021 2378.44 851.283C2372.9 854.427 2368.02 857 2367.59 857C2367.15 857 2365.38 857.62 2363.65 858.377C2357.2 861.199 2345.16 863.93 2334.08 865.085C2312.01 867.386 2288.36 863.068 2270.1 853.404C2244.11 839.65 2228.09 823.221 2215.58 797.5C2201.71 768.967 2195.39 744.097 2191.45 702.473C2188.43 670.554 2186.97 512.377 2189.65 507.636C2191.12 505.042 2205.71 490.527 2212.91 484.5C2216.2 481.75 2218.91 479.192 2218.94 478.815C2218.98 478.438 2216.19 475.279 2212.75 471.795C2198.4 457.242 2186.18 443.379 2181.38 436.178C2174.48 425.85 2171.87 417.311 2169.1 396C2166.62 376.97 2167.28 177.323 2169.83 174.773C2170.23 174.373 2182.02 174.526 2196.03 175.112C2220.05 176.118 2240.5 175.513 2257 173.31C2259.47 172.979 2262.51 172.58 2263.75 172.422C2278.15 170.591 2305.19 165.467 2308 164.038C2308.82 163.618 2311.53 162.973 2314 162.606C2316.47 162.238 2320.75 161.08 2323.5 160.031C2326.25 158.983 2332.44 156.933 2337.25 155.475C2342.06 154.018 2346.24 152.415 2346.55 151.913C2346.86 151.411 2347.79 151 2348.6 151C2349.42 151 2353.1 149.604 2356.79 147.898C2360.48 146.191 2366.42 143.468 2370 141.847C2373.58 140.225 2377.29 138.471 2378.25 137.949C2379.21 137.427 2381.01 136.48 2382.25 135.845C2383.49 135.209 2385.18 134.329 2386 133.888C2387.86 132.897 2400.33 125.653 2404.81 122.959C2408.71 120.619 2433.04 102.329 2434.5 100.644C2435.05 100.008 2437.08 98.192 2439 96.608C2440.92 95.024 2447.21 89.402 2452.97 84.114C2468.81 69.565 2475.82 63.275 2485.96 54.5C2491.05 50.1 2498.25 42.675 2501.96 38C2508.39 29.914 2512.81 22.475 2511.79 21.46C2511.54 21.203 2505.34 26.726 2498.03 33.733C2483.54 47.624 2476.95 53.078 2467 59.408C2458.81 64.618 2438.56 73.843 2425.5 78.315C2420 80.198 2408.97 83.987 2401 86.735C2377.26 94.916 2360.65 99.47 2347.39 101.431C2341.95 102.235 2333 103.56 2327.5 104.375C2294.37 109.286 2226.07 112.748 2185.39 111.579C2173.35 111.233 2148.42 110.57 2130 110.105C2082.92 108.918 2033.96 104.438 2015.17 99.598C2012.05 98.795 2007.25 97.594 2004.5 96.929C1997.93 95.34 1981.78 89.977 1980.5 88.962C1979.95 88.524 1977.02 87.198 1974 86.014C1960.79 80.842 1944.19 68.991 1940.62 62.182C1939.06 59.199 1938.85 57.332 1939.39 51.049C1939.74 46.897 1940.69 41.291 1941.51 38.591C1942.95 33.853 1943.47 29 1942.55 29C1942.31 29 1939.5 30.521 1936.3 32.38C1923.4 39.892 1898.58 41.347 1883.09 35.5C1866.37 29.193 1860.01 26.551 1857 24.66C1855.08 23.452 1852.15 21.812 1850.5 21.017C1848.85 20.222 1846.38 18.852 1845 17.971C1840.01 14.777 1827.36 9.941 1821.5 8.987C1815.1 7.947 1813.29 7.947 1791.43 8.992ZM1038.5 160.125C1028.6 160.469 1012.12 160.807 1001.87 160.875C987.999 160.968 982.971 161.33 982.173 162.291C980.518 164.286 983.504 165.622 996.097 168.522C1009.68 171.651 1012.63 172.82 1021 178.403C1024.58 180.787 1029.56 183.895 1032.07 185.308C1038.34 188.827 1046.33 196.186 1050.59 202.361C1052.54 205.187 1055.44 209.3 1057.03 211.5C1058.63 213.7 1062.7 221.623 1066.08 229.106L1072.23 242.713L1084.36 243.394C1100.14 244.28 1115.06 247.059 1127.45 251.419C1135.54 254.266 1138.22 255.75 1141.83 259.361C1145.69 263.221 1146.34 264.484 1146.78 269.035C1147.05 271.914 1146.77 277.921 1146.14 282.385C1145.51 286.848 1143.87 298.744 1142.48 308.82C1141.1 318.896 1138.8 333.521 1137.38 341.32C1135.95 349.119 1134.18 358.875 1133.45 363C1128.3 391.958 1121.31 419.354 1116.72 428.5C1113.49 434.94 1114.24 434.515 1086 445.996C1060.44 456.39 1060.95 456.028 1067.4 459.056C1070.52 460.523 1074.86 464.297 1080.42 470.378C1095.03 486.357 1110.3 506.031 1112.72 512C1113.5 513.925 1115.57 516.705 1117.32 518.177L1120.5 520.854L1121.11 562.177C1121.47 586.311 1122.14 604.54 1122.74 606C1123.29 607.375 1124.08 610.975 1124.49 614C1125.55 621.887 1128.73 634.757 1130.93 640C1131.96 642.475 1133.92 647.2 1135.28 650.5C1136.63 653.8 1139.49 659.713 1141.62 663.64C1147.9 675.193 1168.52 695.525 1190 711.326C1195.22 715.17 1203.55 722.23 1208.5 727.014L1217.5 735.713L1226 736.873C1236.31 738.281 1240.03 739.521 1246.62 743.75C1249.4 745.537 1252.31 747 1253.09 747.001C1254.28 747.002 1254.45 742.839 1254.2 720.751C1253.81 687.122 1254.92 689.874 1232.81 667.823C1223.81 658.845 1213.87 648.038 1210.71 643.807C1202.33 632.575 1192.48 612.475 1189.95 601.478C1185.6 582.506 1184.95 575.956 1184.49 546.75L1184.04 518L1241.77 517.999H1299.5L1298.91 584.749C1298.48 632.549 1297.97 652.636 1297.11 655.5C1295.02 662.4 1293.86 665.334 1290.95 671.015C1289.4 674.048 1286.89 680.123 1285.36 684.515C1282.69 692.199 1282.59 693.172 1282.78 710.307C1282.91 722.382 1283.46 729.993 1284.49 733.951C1285.32 737.162 1286 741.61 1286 743.835C1286 746.061 1286.41 748.138 1286.92 748.45C1288.58 749.476 1291.04 746 1290.41 743.51C1289.67 740.544 1292.87 738.599 1297.36 739.287C1301.7 739.95 1316.68 731.95 1328.52 722.649C1333.53 718.717 1340.88 713.25 1344.86 710.5C1370.05 693.094 1392.22 675.622 1395.9 670.274C1397.33 668.198 1399.12 666.11 1399.87 665.633C1400.62 665.156 1400.83 664.481 1400.34 664.133C1395.57 660.792 1385.2 643.175 1381.64 632.357C1371.62 601.936 1371.11 594.271 1370.92 471.5C1370.67 317.377 1370.55 309.09 1368.45 304.75C1367.45 302.688 1366.36 301 1366.02 301C1365.69 301 1362.88 298.862 1359.78 296.25C1356.68 293.638 1352.43 290.601 1350.32 289.502C1348.22 288.404 1345.9 286.938 1345.17 286.246C1344.44 285.553 1342.87 284.474 1341.67 283.848C1338.7 282.287 1321.72 269.647 1315 263.984C1311.97 261.437 1305.45 256.516 1300.5 253.049C1295.55 249.582 1287.22 243.34 1282 239.177C1265.65 226.15 1259.63 221.494 1255.5 218.675C1249.56 214.618 1242.19 209.134 1234.95 203.371C1228.49 198.233 1216.7 189.876 1201.26 179.485C1190.66 172.358 1171.97 164.196 1162.13 162.396C1156.65 161.394 1141.28 160.847 1107.5 160.452C1081.65 160.15 1059.6 159.813 1058.5 159.702C1057.4 159.591 1048.4 159.781 1038.5 160.125ZM1376 161.128C1360.83 162.131 1347.69 167.263 1323.03 181.813C1321.31 182.829 1322.47 184.923 1329.65 193.742C1334.03 199.119 1349 228.536 1349 231.768C1349 234.211 1353.42 242.996 1354.87 243.449C1355.77 243.728 1360.03 244.628 1364.35 245.449C1384.68 249.315 1402.31 260.191 1416.87 277.85C1423.16 285.476 1424.03 289.304 1425.09 314C1426.26 341.018 1427.8 719.439 1426.81 735.584C1426.41 742.138 1425.36 751.325 1424.49 756C1423.61 760.675 1422.45 768.325 1421.9 773C1421.36 777.675 1420.49 782.85 1419.97 784.5C1417.77 791.528 1412.34 826.837 1409.99 849.5C1408.5 863.861 1408.81 911.632 1410.49 926.5C1411.3 933.65 1411.97 948.162 1411.98 958.75C1411.99 969.338 1412.34 978 1412.75 978C1413.92 978 1417.76 970.154 1419.88 963.444C1420.93 960.113 1422.1 953.813 1422.48 949.444C1422.85 945.075 1423.8 938.8 1424.57 935.5C1425.35 932.2 1426.62 926.575 1427.4 923C1428.79 916.601 1437.7 880.655 1445.14 851.5C1447.54 842.074 1450.52 833.095 1453.13 827.434C1454.16 825.198 1455 823.037 1455 822.632C1455 821.559 1463.05 805.599 1463.89 805.004C1464.28 804.727 1466.06 802.449 1467.83 799.942C1472.84 792.878 1483.71 787 1491.77 787C1496.3 787 1497.3 789.988 1497.13 803C1496.96 815.42 1498.32 832.803 1501.06 853.5C1502.16 861.75 1503.57 873.563 1504.2 879.75C1504.82 885.938 1505.6 891 1505.92 890.999C1506.24 890.999 1507.53 885.234 1508.78 878.19C1510.04 871.145 1511.7 863.158 1512.49 860.44C1513.27 857.723 1515.04 848.975 1516.42 841C1519.39 823.763 1521.78 815.234 1529.69 793.553C1531.76 787.86 1532.58 775.556 1531.95 759.5C1531.65 751.8 1531.27 711.075 1531.11 669C1530.81 589.738 1530.65 575.132 1529.49 524.166L1528.8 493.832L1534.65 494.505C1537.87 494.875 1542.14 495.592 1544.14 496.098C1558.27 499.668 1605.56 501.51 1621.5 499.11C1631.76 497.565 1647.93 491.2 1651.01 487.493C1651.78 486.56 1654.68 484.322 1657.46 482.52C1662.76 479.076 1684.9 457.433 1698.53 442.373C1709.3 430.469 1726 409.626 1730.56 402.378C1732.6 399.145 1736.61 392.9 1739.48 388.5C1742.35 384.1 1746.17 377.575 1747.96 374C1749.75 370.425 1752.01 366.375 1752.98 365C1753.95 363.625 1758.63 354.654 1763.4 345.063C1768.17 335.473 1772.44 327.148 1772.91 326.563C1773.37 325.979 1774.09 324.375 1774.5 323C1775.5 319.658 1782.97 304.641 1783.95 304.004C1784.38 303.727 1785.75 301.485 1787 299.022C1788.25 296.56 1790.31 292.96 1791.58 291.022C1792.84 289.085 1794.16 286.33 1794.51 284.9C1795.14 282.314 1795.1 282.296 1787.82 281.734C1780.4 281.161 1770.4 278.89 1755 274.278C1734.49 268.139 1714.76 255.413 1694.27 235.121L1683.05 224H1678.15C1673.17 224 1667.54 225.836 1663 228.935C1655.91 233.778 1651.69 234.445 1628 234.473C1559.19 234.555 1447.61 231.856 1445.71 230.065C1445.27 229.655 1446.62 228.186 1448.71 226.801C1450.79 225.416 1454.48 222.621 1456.91 220.589C1459.33 218.558 1462.79 216.28 1464.59 215.527C1466.39 214.774 1472.12 210.972 1477.33 207.079C1482.53 203.186 1487.05 200 1487.38 200C1488.07 200 1499.65 192.431 1505.5 188.152C1511.72 183.601 1530.76 172 1532.01 172C1532.63 172 1535.56 170.887 1538.54 169.526C1541.51 168.165 1545.09 166.765 1546.48 166.415C1547.88 166.065 1549.27 165.378 1549.57 164.889C1549.87 164.4 1550.99 164 1552.06 164C1554.82 164 1554.52 161.013 1551.75 160.942C1534.94 160.506 1382.98 160.667 1376 161.128ZM2062.84 258.795C2062.45 308.783 2063.42 303.55 2052.43 315C2049 318.575 2044.53 323.525 2042.48 326C2040.44 328.475 2023.83 345.8 2005.56 364.5C1971 399.9 1965.78 405.32 1953.75 418.365C1940.78 432.429 1892.18 481 1891.07 481C1889.5 481 1889.76 477.782 1891.54 475.242C1892.39 474.03 1893.71 469.542 1894.46 465.269C1895.22 460.996 1896.26 456.375 1896.78 455C1897.31 453.625 1898.27 449.35 1898.93 445.5C1899.59 441.65 1900.8 436.25 1901.6 433.5C1907.91 412.045 1910.51 404.083 1912.4 400.46C1913.25 398.832 1915.12 394.575 1916.55 391C1917.99 387.425 1919.78 383.15 1920.52 381.5C1921.26 379.85 1923.07 375.8 1924.54 372.5C1929.66 361.013 1939.03 342.896 1944.5 333.92C1947.52 328.95 1950 324.597 1950 324.246C1950 323.545 1950.82 322.273 1962.98 304C1967.55 297.125 1973.44 288.8 1976.05 285.5C1981.9 278.115 2003.9 256.579 2013.87 248.484C2030.01 235.373 2043.8 224.732 2049.5 220.99C2052.8 218.824 2055.95 216.613 2056.5 216.076C2057.05 215.539 2058.78 215.077 2060.34 215.05L2063.18 215L2062.84 258.795ZM465.397 226.334C467.654 228.168 471.525 230.885 474 232.372C476.475 233.859 479.625 235.914 481 236.939C482.375 237.963 487.55 241.393 492.5 244.562C497.45 247.731 503.509 251.938 505.964 253.912C508.419 255.885 513.199 259.525 516.586 262C519.973 264.475 525.282 268.525 528.383 271C536.353 277.36 559.943 301.533 564.003 307.5C565.874 310.25 567.876 312.988 568.452 313.585C571.83 317.083 585.567 337.238 590.135 345.398C597.319 358.23 609 383.558 609 386.302C609 387.089 609.869 389.931 610.932 392.617C617.063 408.115 623.543 434.487 626.015 454C628.953 477.186 628.127 522.51 624.384 543.5C620.037 567.881 616.011 586.3 614.332 589.5C613.754 590.6 612.985 593.063 612.621 594.973C611.956 598.474 606.151 615.093 603.007 622.5C602.073 624.7 600.262 629.15 598.982 632.388C597.703 635.627 595.229 640.352 593.486 642.888C591.743 645.425 588.201 651.231 585.616 655.791C581.546 662.968 576.156 670.446 556.994 695.5C553.095 700.597 521.85 732 520.677 732C519.79 732 503.649 744.513 502.049 746.441C501.337 747.299 500.346 748 499.846 748C499.346 748 495.648 750.475 491.629 753.5C487.61 756.525 483.947 759 483.49 759C483.032 759 481.947 759.629 481.079 760.399C479.252 762.016 474.885 764.537 463 770.835C458.325 773.312 450.45 777.486 445.5 780.112C432.045 787.249 427.859 789.121 424 789.725L420.5 790.273L423.437 787.137C425.052 785.411 426.921 784 427.588 784C428.256 784 429.705 782.537 430.808 780.75C431.911 778.963 434.57 775.025 436.716 772C443.185 762.885 447.992 752.967 453.681 737C457.6 726 460.056 709.736 460.161 694.091C460.199 688.366 460.588 682.438 461.024 680.917C461.46 679.395 461.612 677.945 461.361 677.695C460.448 676.781 460.141 629.088 459.956 459.5C459.729 250.818 459.811 223 460.647 223C461.003 223 463.14 224.5 465.397 226.334ZM687.671 224.452C687.921 225.028 690.434 227.3 693.256 229.5C699.415 234.301 705.902 240.726 712 248.066C714.475 251.045 718.561 255.736 721.08 258.491C734.45 273.113 753.821 300.732 764.33 320.155C770.978 332.442 781 353.005 781 354.357C781 354.723 781.864 356.929 782.92 359.261C785.748 365.503 788.731 379.924 789.9 393C791.334 409.056 791.893 477.176 790.961 522.5C790.04 567.299 787.571 595.242 782.918 613.5C780.723 622.116 776.537 636.636 774.846 641.5C774.273 643.15 773.468 646.075 773.058 648C769.655 663.967 758.394 689.089 749.13 701.378C743.869 708.358 735.1 717.015 728.875 721.375C726.314 723.169 727.002 726 729.999 726C731.132 726 735.984 723.621 740.78 720.712C745.576 717.804 751.975 714.154 755 712.601C758.025 711.047 761.21 709.152 762.079 708.388C762.947 707.625 763.966 707 764.344 707C765.368 707 778.174 697.634 789.391 688.681C799.296 680.775 817.203 668.57 822.114 666.378C827.331 664.049 840.685 654.609 848.626 647.635C861.449 636.376 865.362 629.478 868.43 612.727C869.797 605.265 870.025 594.981 869.96 543.869C869.918 510.822 870.126 483.541 870.421 483.245C871.314 482.353 879.093 487.949 886 494.451C889.575 497.816 895.641 503.254 899.48 506.535C909.909 515.446 922.886 528.771 966.742 575.6C975.55 585.005 983.586 594.005 984.599 595.6C985.613 597.195 988.109 600.525 990.147 603C992.185 605.475 995.454 610.531 997.411 614.235C1002.97 624.754 1003.35 632.187 1002.59 715L1001.94 785.5L1004.33 792.5C1005.65 796.35 1008.41 803.55 1010.46 808.5C1015.52 820.688 1022.74 848.633 1024.94 864.5C1025.93 871.65 1027.25 878.767 1027.87 880.315C1028.49 881.863 1029 884.424 1029 886.006C1029 887.588 1029.45 889.16 1030 889.5C1030.62 889.881 1031 888.147 1031 884.97C1031 882.139 1031.88 874.575 1032.96 868.161C1035.55 852.781 1037.1 829.94 1037 808.705C1036.95 799.242 1036.93 790.953 1036.96 790.285C1036.98 789.617 1037.87 788.604 1038.94 788.034C1040.4 787.25 1042.77 787.617 1048.69 789.546C1057.66 792.472 1063.6 796.208 1066.49 800.744C1073.18 811.272 1075.86 816.108 1077.7 821C1080.87 829.449 1088.67 854.506 1091.09 864C1092.28 868.675 1094.06 875.65 1095.05 879.5C1098.79 894.048 1100.12 899.72 1101.5 907C1102.92 914.499 1105.06 924.016 1108.92 940C1110.04 944.675 1112.38 955.475 1114.1 964C1117.49 980.769 1118.93 984.329 1119.12 976.45C1119.31 968.883 1119.74 962.807 1121.18 947C1122.6 931.361 1123.02 863.616 1121.8 846.821C1120.95 835.275 1118.53 817.2 1116.52 807.5C1115.73 803.65 1114.81 798.475 1114.48 796C1114.15 793.525 1113.49 790.6 1113.02 789.5C1112.54 788.4 1111.42 783.225 1110.54 778C1108.75 767.362 1108.78 767.554 1106.52 756.5C1105.63 752.1 1104.47 745.575 1103.97 742C1103.46 738.425 1102.61 733.475 1102.07 731C1101.53 728.525 1100.82 709.85 1100.51 689.5C1099.99 656.352 1098.77 631.987 1097.44 628.12C1097.18 627.361 1096.29 622.186 1095.46 616.62C1093.81 605.549 1090.66 595.322 1085.71 585C1078.91 570.803 1056.46 537.268 1047.22 527.5C1045.65 525.85 1041.94 521.125 1038.96 517C1035.98 512.875 1033.18 509.345 1032.74 509.156C1032.3 508.966 1029.63 505.366 1026.81 501.156C1020.51 491.742 1006.91 473.621 1005.81 473.167C1005.36 472.983 1005 471.824 1005 470.591C1005 468.333 1028.83 444.105 1048 426.86C1052.68 422.659 1061.81 414.013 1068.31 407.648C1074.8 401.282 1081.87 394.687 1084.01 392.99C1091.14 387.344 1094.14 382.524 1096.65 372.655C1097.93 367.62 1098.98 362.443 1098.99 361.151C1099 359.859 1099.73 357.27 1100.62 355.397C1101.5 353.525 1102.01 351.161 1101.75 350.145C1101.32 348.522 1103.68 324.878 1105.57 311.819C1106.19 307.575 1106 306.904 1103.53 304.615C1102.03 303.227 1099.16 301.553 1097.15 300.894C1092.63 299.414 1056.31 281.544 1054.1 279.717C1053.22 278.985 1051.15 277.81 1049.5 277.105C1042.36 274.054 1020.92 257.316 1009.88 246.174C990.717 226.831 989.548 226.149 982.085 229.957C971.129 235.546 968.341 236.107 951.862 236.035C943.261 235.998 930.661 235.535 923.862 235.007C917.063 234.478 907 234.019 901.5 233.987C893.911 233.943 887.642 233.078 875.5 230.402C866.7 228.462 858.375 226.807 857 226.722C854.068 226.543 847.079 227.614 838.05 229.627C825.74 232.37 806.94 233.227 785.029 232.043C751.684 230.242 714.515 227.331 707.5 225.971C698.222 224.173 687.185 223.328 687.671 224.452ZM1220.63 282.472C1223.86 284.932 1226.95 287.31 1227.5 287.757C1228.05 288.204 1229.59 289.328 1230.93 290.254C1232.26 291.181 1236.31 294.604 1239.93 297.861C1243.54 301.118 1248.8 305.519 1251.62 307.641C1254.43 309.764 1260.73 315.168 1265.62 319.65C1270.5 324.133 1276.75 329.493 1279.5 331.561C1282.25 333.63 1286.37 336.957 1288.66 338.955C1290.94 340.952 1294.65 343.467 1296.9 344.543C1299.14 345.62 1300.98 346.782 1300.99 347.128C1301.01 348.289 1298.36 349.963 1294.13 351.453C1291.83 352.266 1287.59 354.453 1284.72 356.313C1277.67 360.877 1265.03 368 1263.97 368C1262.52 368 1235.83 386.235 1229.21 391.747C1225.77 394.606 1217.46 400.771 1210.73 405.448C1204 410.125 1194.9 417.15 1190.5 421.059C1181.35 429.188 1178.18 431.513 1177.36 430.696C1177.05 430.38 1177.77 427.065 1178.98 423.331C1181.04 416.957 1183.97 404.918 1186.23 393.5C1186.78 390.75 1187.8 386.475 1188.5 384C1189.2 381.525 1190.07 377.025 1190.44 374C1191.5 365.302 1197.07 340.319 1203.72 314.5C1206.12 305.15 1208.76 293.675 1209.59 289C1210.42 284.325 1211.28 279.938 1211.51 279.25C1212.26 277.055 1214.61 277.886 1220.63 282.472ZM1546.5 284.765C1550.96 287.213 1561.92 292.084 1567.05 293.897C1570.05 294.958 1575.65 297.013 1579.5 298.464C1586.19 300.987 1602.16 306.703 1608.5 308.847C1610.15 309.404 1618.03 311.924 1626 314.447C1633.97 316.969 1641.85 319.506 1643.5 320.085C1645.15 320.665 1648.75 321.828 1651.5 322.671C1654.25 323.514 1656.95 324.549 1657.5 324.971C1658.05 325.393 1660.97 326.287 1664 326.957C1667.03 327.627 1670.97 328.838 1672.78 329.647L1676.05 331.118L1673.84 334.309C1672.63 336.064 1668.44 341.1 1664.53 345.5C1660.62 349.9 1655.87 355.52 1653.96 357.988C1644.59 370.145 1625.26 390.104 1603.5 410.117C1594.67 418.236 1574.54 431.383 1561.19 437.748C1554.76 440.813 1548.96 443.431 1548.29 443.566C1547.63 443.7 1544.77 444.579 1541.94 445.519C1532.78 448.562 1533.51 455.699 1533.43 362.111L1533.37 280.294L1538.93 281.981C1541.99 282.909 1545.4 284.162 1546.5 284.765ZM870.427 287.883C871.133 289.024 885.036 295.692 891.5 297.99C894.25 298.967 901.794 302.294 908.264 305.383C914.734 308.473 920.291 311 920.613 311C920.935 311 922.616 311.609 924.349 312.353C926.082 313.098 929.975 314.739 933 316.001C936.025 317.263 940.75 319.284 943.5 320.493C946.25 321.702 955.025 325.488 963 328.906C970.975 332.324 982.45 337.538 988.5 340.492C994.55 343.447 1002.09 346.727 1005.27 347.783C1008.44 348.838 1011.25 349.913 1011.5 350.171C1012.13 350.801 1002.54 359.017 997.37 362.272C995.099 363.703 989.113 368.727 984.068 373.437C979.023 378.147 974.493 382 974.001 382C973.509 382 970.155 384.233 966.549 386.963C952.53 397.574 926.902 412.279 912.361 418.055C908.118 419.741 902.135 422.366 899.065 423.889C895.995 425.412 890.337 427.62 886.492 428.795C882.646 429.97 877.717 431.847 875.539 432.966C869.57 436.031 867.894 435.731 868.743 431.75C869.125 429.962 869.343 424.9 869.228 420.5C869.113 416.1 868.789 384.263 868.506 349.75C868.032 291.753 868.261 284.378 870.427 287.883ZM2062.42 424.609C2062.25 451.343 2061.83 473.506 2061.48 473.859C2060.77 474.57 1973 475.761 1973 475.06C1973 474.818 1975.41 472.343 1978.36 469.56C1981.31 466.777 1987.27 460.24 1991.61 455.033C1999.38 445.715 2008.67 435.379 2020.04 423.428C2023.22 420.089 2028.51 414.014 2031.79 409.928C2035.07 405.843 2040.1 400.25 2042.96 397.5C2045.82 394.75 2050.45 389.575 2053.26 386C2057.29 380.861 2061.65 376.21 2062.61 376.022C2062.68 376.01 2062.59 397.874 2062.42 424.609ZM1275.41 394.767C1279.31 397.354 1285.82 402.737 1289.88 406.727L1297.27 413.982L1296.81 440.486C1296.55 455.063 1296.15 467.182 1295.92 467.418C1294.93 468.401 1202.85 466.254 1201.82 465.223C1201.07 464.469 1202.66 462.379 1207.26 458.071C1210.84 454.724 1215.95 448.726 1218.61 444.742C1224.37 436.116 1231.08 426.891 1232.59 425.5C1233.18 424.95 1237.67 420 1242.55 414.5C1247.43 409 1251.93 404.05 1252.54 403.5C1253.15 402.95 1255.87 399.8 1258.57 396.5C1261.28 393.2 1263.95 390.167 1264.5 389.761C1265.89 388.734 1267.3 389.381 1275.41 394.767ZM2064.32 530.5C2064.22 532.15 2064.12 554.35 2064.09 579.833C2064.02 656.122 2065.89 692.118 2071.05 713.637C2072.12 718.112 2073 722.423 2073 723.217C2073 725.387 2083.71 751.631 2086.74 756.9C2091.54 765.233 2102.77 781.419 2106.93 786C2112.74 792.402 2110.16 792.338 2096.65 785.745C2090.52 782.752 2084.15 779.989 2082.5 779.605C2077.88 778.529 2044.54 761.404 2035 755.208C2015.32 742.425 2004.97 735.02 1999 729.445C1996.53 727.133 1991.78 723 1988.46 720.262C1973.61 708.009 1939.99 671.687 1935.54 663.084C1934.77 661.58 1932.04 657.238 1929.49 653.434C1924.66 646.231 1909.25 615.819 1906.46 608C1905.58 605.525 1904.06 600.118 1903.09 595.984C1902.12 591.851 1900.85 587.576 1900.28 586.484C1899.7 585.393 1898.9 582.475 1898.5 580C1898.1 577.525 1897.19 574.072 1896.47 572.326C1895.75 570.581 1894.88 565.856 1894.53 561.826C1894.19 557.797 1893.48 553.15 1892.97 551.5C1892.46 549.85 1891.91 544 1891.77 538.5L1891.5 528.5L1920 527.982C1935.68 527.697 1974.6 527.472 2006.5 527.482L2064.5 527.5L2064.32 530.5Z" fill="#DCB596"/>
</svg>
