<svg width="2623" height="1110" viewBox="0 0 2623 1110" fill="none" xmlns="http://www.w3.org/2000/svg">
<path fill-rule="evenodd" clip-rule="evenodd" d="M0.0327122 1.0038C-1.02929 2.7228 24.0717 43.2658 30.9567 50.9508C32.6807 52.8758 36.6407 57.8428 39.7567 61.9878C42.8727 66.1338 50.0667 74.9108 55.7437 81.4938C61.4207 88.0768 68.0597 95.9348 70.4957 98.9568C76.4087 106.288 106.305 135.802 116.075 143.951C120.361 147.526 128.187 153.689 133.467 157.646C138.746 161.603 145.162 166.44 147.723 168.396C150.285 170.351 152.705 171.951 153.102 171.951C153.862 171.951 165.707 179.811 166.566 180.885C167.28 181.778 180.559 189.951 181.295 189.951C181.632 189.951 182.619 190.579 183.487 191.347C186.027 193.594 199.848 200.528 208.283 203.788C212.564 205.443 219.216 208.215 223.066 209.949C232.458 214.178 238.889 216.387 250.65 219.424C256.074 220.825 264.528 223.317 269.437 224.961C274.345 226.606 279.42 227.951 280.714 227.952C282.007 227.952 287.116 229.057 292.066 230.408C297.016 231.758 305.116 233.303 310.066 233.842C319.645 234.884 336.374 237.071 353.566 239.529C372.631 242.255 381.097 241.287 375.834 236.984C372.801 234.504 361.51 232.147 347.066 230.979C340.466 230.445 331.466 229.358 327.066 228.563C322.666 227.769 316.212 226.829 312.723 226.475C309.234 226.12 305.339 225.435 304.067 224.951C302.795 224.468 298.086 223.57 293.603 222.956C285.524 221.85 277.57 219.947 264.066 215.888C260.216 214.731 254.591 213.113 251.566 212.293C243.88 210.21 220.032 202.234 217.862 201.021C216.874 200.47 212.916 198.808 209.066 197.329C200.274 193.952 186.19 186.228 177.066 179.78C173.216 177.06 164.441 171.182 157.566 166.72C137.608 153.766 107.582 128.921 94.5657 114.591C91.5407 111.261 84.3517 103.643 78.5897 97.6638C72.8277 91.6838 66.9837 85.1398 65.6037 83.1208C64.2227 81.1028 60.0127 75.8508 56.2467 71.4508C49.0717 63.0668 42.7277 54.4618 19.3857 21.4508C11.6077 10.4508 4.75369 1.11981 4.15469 0.71581C2.58869 -0.34019 0.785712 -0.214196 0.0327122 1.0038ZM2617.56 2.7008C2617.56 3.1138 2615.31 5.9258 2612.57 8.9508C2609.82 11.9758 2605.93 16.9258 2603.92 19.9508C2601.91 22.9758 2596.28 30.8508 2591.41 37.4508C2565.02 73.2438 2566.16 71.7628 2555.06 84.4508C2552.65 87.2008 2545.09 95.9758 2538.26 103.951C2522.79 122.017 2500.12 144.111 2487.03 153.883C2481.55 157.97 2475.49 162.491 2473.57 163.928C2469.53 166.938 2465.1 169.571 2454.57 175.217C2450.44 177.427 2444.59 180.708 2441.57 182.508C2431.75 188.346 2410.27 198.601 2402.07 201.361C2389.39 205.626 2386.71 206.594 2375.57 210.909C2365.01 215 2334.36 222.951 2329.15 222.951C2327.61 222.951 2323.36 223.609 2319.71 224.414C2304.6 227.741 2264.8 232.611 2245.13 233.539C2239.69 233.796 2235.34 234.525 2234 235.405L2231.79 236.848V297.15C2231.79 330.315 2232.21 360.601 2232.71 364.451C2234.49 377.992 2235.84 389.527 2236.51 396.951C2236.88 401.076 2237.24 368.498 2237.31 324.556C2237.41 254.772 2237.62 244.47 2238.94 243.152C2239.98 242.109 2243.94 241.376 2251.76 240.78C2257.98 240.306 2266.44 239.494 2270.57 238.977C2291.18 236.392 2302.39 234.791 2305.57 233.98C2307.49 233.488 2311.77 232.8 2315.07 232.452C2321.68 231.754 2342.54 227.664 2350.19 225.565C2352.87 224.828 2357.32 223.659 2360.07 222.967C2362.82 222.274 2367.09 221.066 2369.57 220.281C2372.04 219.496 2376.74 218.186 2380 217.371C2383.27 216.555 2386.42 215.541 2387 215.117C2387.59 214.694 2391.22 213.298 2395.07 212.017C2403.92 209.068 2433.55 196.154 2435.64 194.326C2436.51 193.57 2437.52 192.951 2437.87 192.951C2438.23 192.951 2440.93 191.415 2443.86 189.537C2446.8 187.66 2453.67 183.776 2459.13 180.907C2464.6 178.037 2469.78 175.073 2470.64 174.32C2471.51 173.567 2472.52 172.951 2472.87 172.951C2473.23 172.951 2477.53 170.222 2482.42 166.886C2494.47 158.679 2515 140.588 2526.57 127.996C2531.79 122.307 2540.48 112.882 2545.88 107.051C2551.27 101.221 2557.21 94.2008 2559.07 91.4508C2560.93 88.7008 2564.75 83.9758 2567.57 80.9508C2577.52 70.2598 2591.37 52.2048 2605.36 31.6998C2624 4.37579 2625.2 1.9508 2620.07 1.9508C2618.69 1.9508 2617.56 2.2878 2617.56 2.7008ZM45.5657 35.5338C45.5657 37.2998 47.7187 36.9928 48.3367 35.1388C48.5547 34.4848 48.0197 33.9508 47.1487 33.9508C46.2777 33.9508 45.5657 34.6628 45.5657 35.5338ZM48.9587 38.5328C49.2927 39.4028 49.5657 40.3028 49.5657 40.5328C49.5657 40.7628 50.2407 40.9508 51.0657 40.9508C51.8907 40.9508 52.5127 41.2878 52.4477 41.7008C52.1077 43.8498 52.9037 45.3688 56.3867 49.2228C58.4877 51.5488 61.1587 55.0258 62.3217 56.9508C65.7437 62.6178 85.5267 81.4168 117.042 108.951C120.504 111.976 128.141 118.833 134.013 124.189C145.186 134.38 164.58 149.37 170.566 152.441C172.491 153.428 177.216 156.297 181.066 158.816C184.916 161.336 192.116 165.483 197.066 168.033C202.016 170.583 207.641 173.642 209.566 174.83C213.918 177.517 224.285 182.483 229.864 184.553C256.973 194.612 267.658 197.68 290.431 201.945C310.579 205.718 351.275 208.823 377.066 208.555L387.066 208.451L387.021 281.451C386.782 668.655 386.251 733.752 383.123 759.082C382.181 766.711 378.928 781.927 375.989 792.451C373.37 801.83 372.542 804.188 368.084 814.951C362.901 827.464 362.464 828.462 361.516 829.951C360.991 830.776 360.115 832.576 359.57 833.951C355.652 843.831 343.905 860.877 336.965 866.752C324.052 877.684 311.358 885.72 295.566 892.96C278.825 900.635 243.679 901.651 219.896 895.146C212.587 893.147 200.571 887.587 192.678 882.551C186.105 878.357 170.935 863.354 165.571 855.741C160.793 848.961 158.423 842.674 155.093 827.951C151.735 813.102 154.663 785.033 160.979 771.51C163.488 766.139 166.076 762.721 171.799 757.217C184.101 745.385 194.692 741.496 212.901 742.125C224.971 742.542 227.821 743.702 235.719 751.413C242.431 757.966 246.289 765.449 247.097 773.48C247.972 782.179 249.626 789.001 251.678 792.376C253.239 794.943 253.571 795.101 254.163 793.558C255.013 791.344 253.981 773.334 252.587 766.027C251.141 758.448 248.041 753.707 238.382 744.3C231.798 737.887 229.058 735.907 225.539 735.016C223.079 734.392 220.032 733.448 218.769 732.917C217.506 732.386 211.773 731.951 206.031 731.951C197.174 731.951 194.185 732.404 186.328 734.938C174.71 738.685 171.597 740.607 161.842 750.05C155.394 756.293 153.036 759.498 148.634 768.009C140.531 783.673 137.659 795.528 137.624 813.451C137.568 842.339 146.917 864.265 168.558 886.001C183.013 900.519 193.866 907.124 216.576 915.223C228.912 919.622 236.966 921.633 253.566 924.46C269.066 927.1 310.117 926.13 318.566 922.925C319.941 922.403 324.952 921.547 329.701 921.022C340.469 919.831 349.034 917.282 362.066 911.388C363.716 910.642 367.894 909.104 371.35 907.969C374.806 906.835 381.556 903.836 386.35 901.305C391.144 898.774 398.891 894.68 403.566 892.207C408.241 889.734 414.091 886.295 416.566 884.564C419.041 882.833 422.191 880.839 423.566 880.133C424.941 879.426 431.466 875.954 438.066 872.417C444.666 868.879 454.341 863.95 459.566 861.463C464.791 858.976 470.416 856.185 472.066 855.262C476.52 852.77 489.231 846.555 496.066 843.527C501.755 841.006 503.926 840.031 514.566 835.213C523.426 831.201 538.111 825.092 540.566 824.396C541.941 824.006 549.789 820.556 558.006 816.729C572.751 809.862 583.69 805.514 588.566 804.583C589.941 804.321 596.088 801.596 602.227 798.528C608.365 795.461 613.933 792.951 614.599 792.951C615.961 792.951 629.643 785.707 633.72 782.826C635.18 781.795 637.066 780.951 637.911 780.951C638.756 780.951 639.691 780.558 639.988 780.077C640.285 779.596 642.899 778.023 645.797 776.581C651.671 773.658 652.999 772.865 659.818 768.201C662.432 766.413 664.866 764.951 665.227 764.951C665.589 764.951 668.268 763.151 671.182 760.951C674.096 758.751 676.729 756.951 677.032 756.951C678.018 756.951 694.613 743.982 703.452 736.303C712.592 728.364 727.01 713.121 734.118 703.884C748.433 685.28 764.703 652.939 773.324 625.951C782.833 596.183 785.544 581.156 787.631 546.65C788.625 530.213 788.188 493.124 786.949 488.759C786.684 487.829 785.589 480.404 784.514 472.259C782.185 454.613 779.139 437.903 777.779 435.317C777.24 434.291 776.465 431.443 776.058 428.989C775.652 426.536 774.934 423.836 774.463 422.989C773.992 422.143 772.217 417.176 770.518 411.951C766.973 401.049 763.706 392.612 760.258 385.451C758.933 382.701 757.028 378.651 756.024 376.451C753.968 371.949 743.227 353.782 741.07 351.159C740.298 350.22 737.281 346.203 734.366 342.232C731.451 338.262 725.852 331.259 721.924 326.671C714.354 317.828 689.395 293.742 682.704 288.821C679.101 286.171 678.801 285.618 679.553 282.995C680.01 281.401 682 277.34 683.975 273.971C685.95 270.601 687.566 267.56 687.566 267.213C687.566 266.866 688.393 264.753 689.403 262.517C690.413 260.281 692.271 255.751 693.532 252.451C694.792 249.151 696.837 243.976 698.075 240.951C699.314 237.926 702.226 229.376 704.548 221.951C706.869 214.526 709.17 207.326 709.661 205.951C711.757 200.073 714.369 183.797 714.5 175.79C714.578 171.027 715.072 164.502 715.598 161.29C716.124 158.079 716.557 153.342 716.56 150.765C716.569 143.818 720.89 127.367 724.654 119.951C734.302 100.941 756.627 78.9408 771.566 73.7208C774.591 72.6648 777.966 71.2298 779.066 70.5348C781.202 69.1828 792.779 65.6088 798.566 64.5138C800.491 64.1498 806.991 63.4408 813.011 62.9388C833.299 61.2458 851.107 64.5318 870.405 73.5288C878.316 77.2178 882.566 77.8908 882.566 75.4568C882.566 72.6708 873.342 67.1298 854.566 58.6388C842.517 53.1888 839.624 52.1588 829.066 49.5598C809.352 44.7068 801.109 43.7108 779.566 43.5778C755.631 43.4298 754.392 43.6738 735.566 52.2648C732.541 53.6458 727.259 56.3618 723.828 58.3018C716.837 62.2538 700.907 68.8418 695.566 69.9878C677.437 73.8798 676.804 73.9328 665.714 72.4698C651.012 70.5308 645.766 69.2478 640.888 66.3948C633.056 61.8138 631.525 64.3658 637.056 72.7818C640.149 77.4878 641.331 82.9338 640.881 90.4098C640.414 98.1578 637.135 102.835 627.034 110.155C622.283 113.597 606.604 121.945 604.868 121.956C604.427 121.959 599.823 123.541 594.638 125.472C573.448 133.362 548.671 137.941 511.066 140.914C479.369 143.421 356.295 145.371 324.066 143.878C291.132 142.352 248.496 137.657 229.566 133.473C228.191 133.169 223.241 132.075 218.566 131.043C205.011 128.05 196.099 125.485 180.066 119.963C150.387 109.739 146.833 108.391 140.33 104.887C139.375 104.372 138.025 103.947 137.33 103.942C136.635 103.938 132.241 102.088 127.566 99.8328C122.891 97.5768 118.135 95.3728 116.997 94.9348C112.238 93.1028 90.1407 74.7898 77.9597 62.5838C58.0187 42.6018 51.8607 36.9508 50.0277 36.9508C48.9107 36.9508 48.5537 37.4778 48.9587 38.5328ZM1836.99 42.9428C1829.25 43.3118 1822.37 43.9508 1821.71 44.3618C1821.04 44.7738 1818.83 45.3148 1816.78 45.5648C1804.06 47.1238 1786.95 51.9238 1773.57 57.6898C1753.86 66.1788 1748.75 68.9398 1743.47 73.9518C1738.19 78.9608 1737.4 81.1808 1741.72 78.8688C1743 78.1838 1748.32 76.1718 1753.55 74.3968C1758.79 72.6218 1766.75 69.8178 1771.26 68.1658C1801.09 57.2308 1841.38 64.1208 1869.57 84.9778C1875.53 89.3948 1890.57 103.935 1890.57 105.293C1890.57 105.612 1893.61 111.185 1897.33 117.677C1901.05 124.168 1904.61 131.273 1905.26 133.465C1909.41 147.658 1911.51 161.57 1911.55 175.091C1911.57 185.021 1914.28 197.502 1917.89 204.397C1920.83 210.01 1930.52 220.951 1932.54 220.951C1933.03 220.951 1936.13 222.746 1939.43 224.94C1942.73 227.134 1947.83 229.855 1950.75 230.987C1958.45 233.971 1968.3 238.929 1969.58 240.465C1970.44 241.504 1969.56 242.35 1965.5 244.389C1959.9 247.204 1956.34 250.378 1939.12 267.951C1926.43 280.907 1916.67 291.891 1911.72 298.789C1909.89 301.353 1906.83 305.35 1904.93 307.67C1899.96 313.751 1883.16 338.935 1879.21 346.235C1877.36 349.654 1873.81 356.123 1871.32 360.611C1865.51 371.09 1858.59 385.421 1854.74 394.951C1849.11 408.886 1846.68 415.439 1846.05 418.451C1845.7 420.101 1844.83 423.026 1844.11 424.951C1842.08 430.377 1838.89 441.826 1837.55 448.451C1835.41 459.049 1835.2 459.469 1831.97 459.287C1830.37 459.197 1827.06 458.678 1824.61 458.133C1816.17 456.259 1814.28 457.204 1801.12 469.928C1773.82 496.317 1763.18 505.951 1761.33 505.951C1759.43 505.951 1760.92 507.916 1764.82 510.544C1770.06 514.08 1776.91 519.43 1781.56 523.613C1783.49 525.352 1787.95 528.952 1791.47 531.613C1797.48 536.158 1801.43 539.008 1816.79 549.9C1823.53 554.675 1835.53 566.149 1837.35 569.551C1837.96 570.693 1838.91 575.207 1839.46 579.582C1840.01 583.957 1840.93 588.784 1841.51 590.309C1842.09 591.834 1842.57 594.304 1842.57 595.798C1842.57 597.293 1843.26 600.976 1844.12 603.983C1844.97 606.99 1846.14 611.701 1846.71 614.45C1847.28 617.199 1848.32 620.574 1849.01 621.95C1849.71 623.326 1851.06 626.926 1852.02 629.951C1857.11 645.996 1865.39 664.331 1873.02 676.451C1875.44 680.301 1878.08 684.655 1878.88 686.126C1885.86 698.924 1913.21 729.899 1928.07 741.822C1945.88 756.123 1979.35 777.845 1987.62 780.468C1988.86 780.861 1992 782.437 1994.6 783.97C1997.2 785.504 2005.57 789.549 2013.2 792.959C2020.82 796.37 2029.99 800.495 2033.57 802.125C2040.63 805.346 2042.3 806.084 2053.57 810.926C2057.69 812.699 2062.53 814.781 2064.32 815.551C2070.13 818.054 2073.96 819.611 2080.07 821.95C2083.37 823.214 2089.44 825.81 2093.57 827.72C2097.69 829.629 2102.7 831.775 2104.71 832.489C2111.37 834.863 2123.6 840.641 2163.98 860.509C2191.15 873.873 2201.99 879.68 2210.59 885.469C2213.44 887.384 2216.13 888.951 2216.58 888.951C2217.02 888.951 2220.46 890.694 2224.23 892.825C2243.91 903.978 2253.02 907.954 2276.57 915.673C2289.25 919.831 2301.05 921.964 2322.9 924.047C2336.63 925.355 2374.34 924.721 2379.57 923.093C2381.49 922.493 2386.22 921.362 2390.07 920.579C2402.6 918.029 2408.75 915.885 2419.15 910.431C2431.35 904.032 2440.8 897.709 2449.38 890.197C2459.2 881.601 2461.12 879.451 2466.8 870.661C2473.73 859.951 2477.37 852.27 2482.29 837.951C2484.66 831.06 2484.87 829.072 2484.9 813.451C2484.93 797.479 2484.77 795.937 2482.14 787.951C2476.6 771.141 2470.44 760.619 2458.92 748.34C2446.12 734.693 2421.88 728.661 2400.44 733.792C2391.06 736.037 2385.13 739.416 2379.43 745.763C2371.36 754.751 2367.14 767.392 2368.65 778.032C2369.07 781.012 2369.45 786.578 2369.49 790.401C2369.61 801.877 2371.35 796.711 2372.5 781.483C2373.72 765.201 2375.62 760.105 2383.52 751.999C2387.26 748.161 2389.6 746.712 2394.19 745.396C2397.42 744.468 2400.59 743.291 2401.23 742.779C2401.87 742.268 2405.54 741.585 2409.38 741.263C2421.66 740.234 2438.02 745.509 2447.36 753.507C2455.51 760.479 2464.01 776.637 2468.1 792.903C2470.9 804.02 2469.64 823.021 2465.14 837.653C2460.07 854.151 2442.06 874.972 2424 885.234C2418.47 888.378 2413.58 890.951 2413.15 890.951C2412.72 890.951 2410.95 891.571 2409.22 892.328C2402.76 895.15 2390.72 897.881 2379.64 899.036C2357.57 901.337 2333.92 897.019 2315.67 887.355C2289.68 873.601 2273.66 857.172 2261.15 831.451C2247.27 802.918 2240.96 778.048 2237.02 736.424C2234 704.505 2232.54 546.328 2235.22 541.587C2236.69 538.993 2251.28 524.478 2258.48 518.451C2261.77 515.701 2264.48 513.143 2264.51 512.766C2264.54 512.389 2261.75 509.23 2258.32 505.746C2243.96 491.193 2231.75 477.33 2226.94 470.129C2220.05 459.801 2217.44 451.262 2214.66 429.951C2212.18 410.921 2212.84 211.274 2215.39 208.724C2215.79 208.324 2227.58 208.477 2241.59 209.063C2265.61 210.069 2286.07 209.464 2302.57 207.261C2305.04 206.93 2308.08 206.531 2309.32 206.373C2323.72 204.542 2350.76 199.418 2353.57 197.989C2354.39 197.569 2357.09 196.924 2359.57 196.557C2362.04 196.189 2366.32 195.031 2369.07 193.982C2371.82 192.934 2378 190.884 2382.81 189.426C2387.62 187.969 2391.81 186.366 2392.12 185.864C2392.43 185.362 2393.35 184.951 2394.17 184.951C2394.98 184.951 2398.67 183.555 2402.36 181.849C2406.05 180.142 2411.99 177.419 2415.57 175.798C2419.14 174.176 2422.85 172.422 2423.82 171.9C2424.78 171.378 2426.58 170.431 2427.82 169.796C2429.05 169.16 2430.74 168.28 2431.57 167.839C2433.42 166.848 2445.89 159.604 2450.38 156.91C2454.28 154.57 2478.61 136.28 2480.07 134.595C2480.62 133.959 2482.64 132.143 2484.57 130.559C2486.49 128.975 2492.78 123.353 2498.53 118.065C2514.38 103.516 2521.38 97.2258 2531.53 88.4508C2536.61 84.0508 2543.81 76.6258 2547.53 71.9508C2553.95 63.8648 2558.37 56.4258 2557.36 55.4108C2557.1 55.1538 2550.91 60.6768 2543.6 67.6838C2529.1 81.5748 2522.51 87.0288 2512.57 93.3588C2504.38 98.5688 2484.13 107.794 2471.07 112.266C2465.57 114.149 2454.54 117.938 2446.57 120.686C2422.82 128.867 2406.21 133.421 2392.96 135.382C2387.52 136.186 2378.57 137.511 2373.07 138.326C2339.93 143.237 2271.64 146.699 2230.95 145.53C2218.92 145.184 2193.99 144.521 2175.57 144.056C2128.49 142.869 2079.53 138.389 2060.73 133.549C2057.62 132.746 2052.82 131.545 2050.07 130.88C2043.5 129.291 2027.34 123.928 2026.06 122.913C2025.51 122.475 2022.59 121.149 2019.56 119.965C2006.35 114.793 1989.75 102.942 1986.19 96.1328C1984.63 93.1498 1984.42 91.2828 1984.95 84.9998C1985.3 80.8478 1986.26 75.2418 1987.08 72.5418C1988.51 67.8038 1989.04 62.9508 1988.12 62.9508C1987.87 62.9508 1985.06 64.4718 1981.87 66.3308C1968.97 73.8428 1944.15 75.2978 1928.65 69.4508C1911.93 63.1438 1905.58 60.5018 1902.57 58.6108C1900.64 57.4028 1897.72 55.7628 1896.07 54.9678C1894.42 54.1728 1891.94 52.8028 1890.57 51.9218C1885.58 48.7278 1872.93 43.8918 1867.07 42.9378C1860.67 41.8978 1858.86 41.8978 1836.99 42.9428ZM1084.07 194.076C1074.17 194.42 1057.68 194.758 1047.44 194.826C1033.56 194.919 1028.54 195.281 1027.74 196.242C1026.08 198.237 1029.07 199.573 1041.66 202.473C1055.25 205.602 1058.2 206.771 1066.57 212.354C1070.14 214.738 1075.12 217.846 1077.64 219.259C1083.9 222.778 1091.89 230.137 1096.15 236.312C1098.1 239.138 1101 243.251 1102.6 245.451C1104.19 247.651 1108.26 255.574 1111.65 263.057L1117.79 276.664L1129.93 277.345C1145.71 278.231 1160.63 281.01 1173.01 285.37C1181.1 288.217 1183.79 289.701 1187.4 293.312C1191.26 297.172 1191.91 298.435 1192.34 302.986C1192.62 305.865 1192.33 311.872 1191.71 316.336C1191.08 320.799 1189.44 332.695 1188.05 342.771C1186.66 352.847 1184.37 367.472 1182.94 375.271C1181.52 383.07 1179.75 392.826 1179.02 396.951C1173.87 425.909 1166.87 453.305 1162.28 462.451C1159.05 468.891 1159.8 468.466 1131.57 479.947C1106 490.341 1106.52 489.979 1112.96 493.007C1116.08 494.474 1120.42 498.248 1125.98 504.329C1140.59 520.308 1155.86 539.982 1158.29 545.951C1159.07 547.876 1161.14 550.656 1162.89 552.128L1166.07 554.805L1166.68 596.128C1167.03 620.262 1167.71 638.491 1168.3 639.951C1168.86 641.326 1169.65 644.926 1170.05 647.951C1171.11 655.838 1174.3 668.708 1176.49 673.951C1177.53 676.426 1179.49 681.151 1180.84 684.451C1182.2 687.751 1185.06 693.664 1187.19 697.591C1193.46 709.144 1214.09 729.476 1235.57 745.277C1240.79 749.121 1249.12 756.181 1254.07 760.965L1263.07 769.664L1271.57 770.824C1281.88 772.232 1285.6 773.472 1292.18 777.701C1294.96 779.488 1297.88 780.951 1298.65 780.952C1299.84 780.953 1300.02 776.79 1299.76 754.702C1299.37 721.073 1300.49 723.825 1278.38 701.774C1269.38 692.796 1259.44 681.989 1256.28 677.758C1247.9 666.526 1238.04 646.426 1235.52 635.429C1231.17 616.457 1230.52 609.907 1230.06 580.701L1229.6 551.951L1287.33 551.95H1345.07L1344.47 618.7C1344.05 666.5 1343.54 686.587 1342.67 689.451C1340.58 696.351 1339.42 699.285 1336.52 704.966C1334.97 707.999 1332.45 714.074 1330.92 718.466C1328.25 726.15 1328.16 727.123 1328.34 744.258C1328.48 756.333 1329.03 763.944 1330.05 767.902C1330.88 771.113 1331.57 775.561 1331.57 777.786C1331.57 780.012 1331.98 782.089 1332.48 782.401C1334.15 783.427 1336.6 779.951 1335.98 777.461C1335.23 774.495 1338.44 772.55 1342.93 773.238C1347.27 773.901 1362.25 765.901 1374.09 756.6C1379.09 752.668 1386.44 747.201 1390.42 744.451C1415.61 727.045 1437.79 709.573 1441.47 704.225C1442.9 702.149 1444.68 700.061 1445.44 699.584C1446.19 699.107 1446.4 698.432 1445.9 698.084C1441.13 694.743 1430.77 677.126 1427.2 666.308C1417.19 635.887 1416.68 628.222 1416.48 505.451C1416.24 351.328 1416.12 343.041 1414.01 338.701C1413.01 336.639 1411.92 334.951 1411.59 334.951C1411.25 334.951 1408.44 332.813 1405.34 330.201C1402.25 327.589 1397.99 324.552 1395.89 323.453C1393.79 322.355 1391.47 320.889 1390.74 320.197C1390.01 319.504 1388.43 318.425 1387.24 317.799C1384.26 316.238 1367.29 303.598 1360.57 297.935C1357.54 295.388 1351.02 290.467 1346.07 287C1341.12 283.533 1332.79 277.291 1327.57 273.128C1311.21 260.101 1305.2 255.445 1301.07 252.626C1295.12 248.569 1287.76 243.085 1280.51 237.322C1274.06 232.184 1262.27 223.827 1246.82 213.436C1236.23 206.309 1217.54 198.147 1207.69 196.347C1202.21 195.345 1186.84 194.798 1153.07 194.403C1127.22 194.101 1105.17 193.764 1104.07 193.653C1102.97 193.542 1093.97 193.732 1084.07 194.076ZM1421.57 195.079C1406.39 196.082 1393.25 201.214 1368.6 215.764C1366.87 216.78 1368.04 218.874 1375.22 227.693C1379.6 233.07 1394.57 262.487 1394.57 265.719C1394.57 268.162 1398.98 276.947 1400.44 277.4C1401.33 277.679 1405.6 278.579 1409.91 279.4C1430.25 283.266 1447.88 294.142 1462.44 311.801C1468.72 319.427 1469.59 323.255 1470.66 347.951C1471.83 374.969 1473.37 753.39 1472.38 769.535C1471.97 776.089 1470.93 785.276 1470.05 789.951C1469.17 794.626 1468.01 802.276 1467.47 806.951C1466.92 811.626 1466.06 816.801 1465.54 818.451C1463.33 825.479 1457.91 860.788 1455.55 883.451C1454.06 897.812 1454.37 945.583 1456.06 960.451C1456.86 967.601 1457.54 982.113 1457.55 992.701C1457.56 1003.29 1457.9 1011.95 1458.32 1011.95C1459.48 1011.95 1463.32 1004.1 1465.44 997.395C1466.5 994.064 1467.67 987.764 1468.04 983.395C1468.42 979.026 1469.36 972.751 1470.14 969.451C1470.91 966.151 1472.18 960.526 1472.96 956.951C1474.35 950.552 1483.27 914.606 1490.7 885.451C1493.1 876.025 1496.09 867.046 1498.69 861.385C1499.72 859.149 1500.57 856.988 1500.57 856.583C1500.57 855.51 1508.61 839.55 1509.46 838.955C1509.85 838.678 1511.62 836.4 1513.4 833.893C1518.4 826.829 1529.28 820.951 1537.33 820.951C1541.87 820.951 1542.87 823.939 1542.69 836.951C1542.53 849.371 1543.88 866.754 1546.63 887.451C1547.72 895.701 1549.13 907.514 1549.76 913.701C1550.39 919.889 1551.16 924.951 1551.48 924.95C1551.8 924.95 1553.09 919.185 1554.35 912.141C1555.6 905.096 1557.27 897.109 1558.05 894.391C1558.84 891.674 1560.6 882.926 1561.98 874.951C1564.96 857.714 1567.34 849.185 1575.25 827.504C1577.33 821.811 1578.15 809.507 1577.52 793.451C1577.21 785.751 1576.84 745.026 1576.68 702.951C1576.38 623.689 1576.21 609.083 1575.06 558.117L1574.37 527.783L1580.22 528.456C1583.43 528.826 1587.7 529.543 1589.71 530.049C1603.84 533.619 1651.13 535.461 1667.07 533.061C1677.33 531.516 1693.5 525.151 1696.57 521.444C1697.35 520.511 1700.25 518.273 1703.02 516.471C1708.32 513.027 1730.46 491.384 1744.1 476.324C1754.87 464.42 1771.56 443.577 1776.13 436.329C1778.17 433.096 1782.18 426.851 1785.05 422.451C1787.92 418.051 1791.73 411.526 1793.53 407.951C1795.32 404.376 1797.58 400.326 1798.54 398.951C1799.51 397.576 1804.2 388.605 1808.97 379.014C1813.73 369.424 1818.01 361.099 1818.48 360.514C1818.94 359.93 1819.66 358.326 1820.07 356.951C1821.07 353.609 1828.54 338.592 1829.52 337.955C1829.95 337.678 1831.32 335.436 1832.57 332.973C1833.82 330.511 1835.87 326.911 1837.14 324.973C1838.41 323.036 1839.73 320.281 1840.08 318.851C1840.7 316.265 1840.67 316.247 1833.39 315.685C1825.96 315.112 1815.97 312.841 1800.57 308.229C1780.06 302.09 1760.32 289.364 1739.84 269.072L1728.61 257.951H1723.71C1718.74 257.951 1713.11 259.787 1708.57 262.886C1701.47 267.729 1697.25 268.396 1673.57 268.424C1604.76 268.506 1493.17 265.807 1491.28 264.016C1490.84 263.606 1492.19 262.137 1494.28 260.752C1496.36 259.367 1500.05 256.572 1502.47 254.54C1504.9 252.509 1508.35 250.231 1510.16 249.478C1511.96 248.725 1517.69 244.923 1522.89 241.03C1528.09 237.137 1532.62 233.951 1532.95 233.951C1533.64 233.951 1545.21 226.382 1551.07 222.103C1557.29 217.552 1576.33 205.951 1577.58 205.951C1578.19 205.951 1581.13 204.838 1584.1 203.477C1587.08 202.116 1590.65 200.716 1592.05 200.366C1593.44 200.016 1594.83 199.329 1595.13 198.84C1595.44 198.351 1596.56 197.951 1597.62 197.951C1600.38 197.951 1600.08 194.964 1597.32 194.893C1580.5 194.457 1428.54 194.618 1421.57 195.079ZM2311.82 246.64C2312.78 246.892 2314.35 246.892 2315.32 246.64C2316.28 246.389 2315.49 246.183 2313.57 246.183C2311.64 246.183 2310.85 246.389 2311.82 246.64ZM2108.4 292.746C2108.02 342.734 2108.99 337.501 2098 348.951C2094.57 352.526 2090.09 357.476 2088.05 359.951C2086 362.426 2069.39 379.751 2051.13 398.451C2016.56 433.851 2011.35 439.271 1999.32 452.316C1986.35 466.38 1937.74 514.951 1936.64 514.951C1935.07 514.951 1935.33 511.733 1937.11 509.193C1937.96 507.981 1939.27 503.493 1940.03 499.22C1940.78 494.947 1941.83 490.326 1942.35 488.951C1942.87 487.576 1943.84 483.301 1944.5 479.451C1945.16 475.601 1946.36 470.201 1947.17 467.451C1953.47 445.996 1956.07 438.034 1957.96 434.411C1958.81 432.783 1960.68 428.526 1962.12 424.951C1963.56 421.376 1965.34 417.101 1966.08 415.451C1966.83 413.801 1968.64 409.751 1970.11 406.451C1975.22 394.964 1984.59 376.847 1990.06 367.871C1993.09 362.901 1995.57 358.548 1995.57 358.197C1995.57 357.496 1996.38 356.224 2008.54 337.951C2013.12 331.076 2019 322.751 2021.62 319.451C2027.47 312.066 2049.47 290.53 2059.43 282.435C2075.57 269.324 2089.36 258.683 2095.07 254.941C2098.37 252.775 2101.52 250.564 2102.07 250.027C2102.62 249.49 2104.34 249.028 2105.9 249.001L2108.74 248.951L2108.4 292.746ZM510.963 260.285C513.22 262.119 517.091 264.836 519.566 266.323C522.041 267.81 525.191 269.865 526.566 270.89C527.941 271.914 533.116 275.344 538.066 278.513C543.016 281.682 549.075 285.889 551.53 287.863C553.985 289.836 558.765 293.476 562.152 295.951C565.539 298.426 570.848 302.476 573.949 304.951C581.919 311.311 605.509 335.484 609.569 341.451C611.44 344.201 613.442 346.939 614.018 347.536C617.396 351.034 631.133 371.189 635.701 379.349C642.885 392.181 654.566 417.509 654.566 420.253C654.566 421.04 655.435 423.882 656.498 426.568C662.629 442.066 669.109 468.438 671.581 487.951C674.519 511.137 673.693 556.461 669.95 577.451C665.603 601.832 661.577 620.251 659.898 623.451C659.32 624.551 658.551 627.014 658.187 628.924C657.522 632.425 651.717 649.044 648.573 656.451C647.639 658.651 645.828 663.101 644.548 666.339C643.269 669.578 640.795 674.303 639.052 676.839C637.309 679.376 633.767 685.182 631.182 689.742C627.112 696.919 621.722 704.397 602.56 729.451C598.661 734.548 567.416 765.951 566.243 765.951C565.356 765.951 549.215 778.464 547.615 780.392C546.903 781.25 545.912 781.951 545.412 781.951C544.912 781.951 541.214 784.426 537.195 787.451C533.176 790.476 529.513 792.951 529.056 792.951C528.598 792.951 527.513 793.58 526.645 794.35C524.818 795.967 520.451 798.488 508.566 804.786C503.891 807.263 496.016 811.437 491.066 814.063C477.611 821.2 473.425 823.072 469.566 823.676L466.066 824.224L469.003 821.088C470.618 819.362 472.487 817.951 473.154 817.951C473.822 817.951 475.271 816.488 476.374 814.701C477.477 812.914 480.136 808.976 482.282 805.951C488.751 796.836 493.558 786.918 499.247 770.951C503.166 759.951 505.622 743.687 505.727 728.042C505.765 722.317 506.154 716.389 506.59 714.868C507.026 713.346 507.178 711.896 506.927 711.646C506.014 710.732 505.707 663.039 505.522 493.451C505.295 284.769 505.377 256.951 506.213 256.951C506.569 256.951 508.706 258.451 510.963 260.285ZM733.237 258.403C733.487 258.979 736 261.251 738.822 263.451C744.981 268.252 751.468 274.677 757.566 282.017C760.041 284.996 764.127 289.687 766.646 292.442C780.016 307.064 799.387 334.683 809.896 354.106C816.544 366.393 826.566 386.956 826.566 388.308C826.566 388.674 827.43 390.88 828.486 393.212C831.314 399.454 834.297 413.875 835.466 426.951C836.9 443.007 837.459 511.127 836.527 556.451C835.606 601.25 833.137 629.193 828.484 647.451C826.289 656.067 822.103 670.587 820.412 675.451C819.839 677.101 819.034 680.026 818.624 681.951C815.221 697.918 803.96 723.04 794.696 735.329C789.435 742.309 780.666 750.966 774.441 755.326C771.88 757.12 772.568 759.951 775.565 759.951C776.698 759.951 781.55 757.572 786.346 754.663C791.142 751.755 797.541 748.105 800.566 746.552C803.591 744.998 806.776 743.103 807.645 742.339C808.513 741.576 809.532 740.951 809.91 740.951C810.934 740.951 823.74 731.585 834.957 722.632C844.862 714.726 862.769 702.521 867.68 700.329C872.897 698 886.251 688.56 894.192 681.586C907.015 670.327 910.928 663.429 913.996 646.678C915.363 639.216 915.591 628.932 915.526 577.82C915.484 544.773 915.692 517.492 915.987 517.196C916.88 516.304 924.659 521.9 931.566 528.402C935.141 531.767 941.207 537.205 945.046 540.486C955.475 549.397 968.452 562.722 1012.31 609.551C1021.12 618.956 1029.15 627.956 1030.16 629.551C1031.18 631.146 1033.67 634.476 1035.71 636.951C1037.75 639.426 1041.02 644.482 1042.98 648.186C1048.53 658.705 1048.92 666.138 1048.15 748.951L1047.51 819.451L1049.9 826.451C1051.22 830.301 1053.97 837.501 1056.03 842.451C1061.08 854.639 1068.31 882.584 1070.51 898.451C1071.5 905.601 1072.82 912.718 1073.44 914.266C1074.06 915.814 1074.57 918.375 1074.57 919.957C1074.57 921.539 1075.02 923.111 1075.57 923.451C1076.18 923.832 1076.57 922.098 1076.57 918.921C1076.57 916.09 1077.45 908.526 1078.53 902.112C1081.11 886.732 1082.67 863.891 1082.56 842.656C1082.52 833.193 1082.5 824.904 1082.52 824.236C1082.55 823.568 1083.44 822.555 1084.5 821.985C1085.97 821.201 1088.34 821.568 1094.25 823.497C1103.23 826.423 1109.17 830.159 1112.05 834.695C1118.75 845.223 1121.42 850.059 1123.26 854.951C1126.44 863.4 1134.24 888.457 1136.66 897.951C1137.85 902.626 1139.63 909.601 1140.62 913.451C1144.36 927.999 1145.69 933.671 1147.07 940.951C1148.49 948.45 1150.63 957.967 1154.48 973.951C1155.61 978.626 1157.94 989.426 1159.67 997.951C1163.06 1014.72 1164.49 1018.28 1164.69 1010.4C1164.88 1002.83 1165.3 996.758 1166.74 980.951C1168.17 965.312 1168.58 897.567 1167.36 880.772C1166.52 869.226 1164.1 851.151 1162.09 841.451C1161.29 837.601 1160.37 832.426 1160.05 829.951C1159.72 827.476 1159.06 824.551 1158.58 823.451C1158.1 822.351 1156.99 817.176 1156.11 811.951C1154.31 801.313 1154.35 801.505 1152.09 790.451C1151.19 786.051 1150.04 779.526 1149.53 775.951C1149.03 772.376 1148.17 767.426 1147.63 764.951C1147.09 762.476 1146.39 743.801 1146.07 723.451C1145.55 690.303 1144.34 665.938 1143 662.071C1142.74 661.312 1141.85 656.137 1141.02 650.571C1139.38 639.5 1136.22 629.273 1131.28 618.951C1124.48 604.754 1102.02 571.219 1092.78 561.451C1091.22 559.801 1087.51 555.076 1084.53 550.951C1081.55 546.826 1078.75 543.296 1078.3 543.107C1077.86 542.917 1075.19 539.317 1072.38 535.107C1066.07 525.693 1052.48 507.572 1051.38 507.118C1050.93 506.934 1050.57 505.775 1050.57 504.542C1050.57 502.284 1074.39 478.056 1093.57 460.811C1098.24 456.61 1107.38 447.964 1113.87 441.599C1120.37 435.233 1127.44 428.638 1129.58 426.941C1136.71 421.295 1139.7 416.475 1142.22 406.606C1143.5 401.571 1144.55 396.394 1144.56 395.102C1144.56 393.81 1145.29 391.221 1146.18 389.348C1147.07 387.476 1147.58 385.112 1147.31 384.096C1146.89 382.473 1149.25 358.829 1151.14 345.77C1151.76 341.526 1151.56 340.855 1149.1 338.566C1147.6 337.178 1144.73 335.504 1142.72 334.845C1138.2 333.365 1101.87 315.495 1099.67 313.668C1098.79 312.936 1096.72 311.761 1095.07 311.056C1087.92 308.005 1066.48 291.267 1055.44 280.125C1036.28 260.782 1035.11 260.1 1027.65 263.908C1016.69 269.497 1013.91 270.058 997.428 269.986C988.827 269.949 976.227 269.486 969.428 268.958C962.629 268.429 952.566 267.97 947.066 267.938C939.477 267.894 933.208 267.029 921.066 264.353C912.266 262.413 903.941 260.758 902.566 260.673C899.634 260.494 892.645 261.565 883.616 263.578C871.306 266.321 852.506 267.178 830.595 265.994C797.25 264.193 760.081 261.282 753.066 259.922C743.788 258.124 732.751 257.279 733.237 258.403ZM2265.07 261.937L2261.07 262.475L2264.35 263.674C2267.26 264.736 2272.57 264.037 2272.57 262.592C2272.57 261.739 2268.91 261.42 2265.07 261.937ZM1266.2 316.423C1269.42 318.883 1272.52 321.261 1273.07 321.708C1273.62 322.155 1275.16 323.279 1276.49 324.205C1277.83 325.132 1281.88 328.555 1285.49 331.812C1289.11 335.069 1294.37 339.47 1297.18 341.592C1300 343.715 1306.3 349.119 1311.18 353.601C1316.07 358.084 1322.32 363.444 1325.07 365.512C1327.82 367.581 1331.94 370.908 1334.22 372.906C1336.51 374.903 1340.21 377.418 1342.46 378.494C1344.71 379.571 1346.55 380.733 1346.55 381.079C1346.58 382.24 1343.92 383.914 1339.7 385.404C1337.39 386.217 1333.16 388.404 1330.29 390.264C1323.24 394.828 1310.59 401.951 1309.53 401.951C1308.09 401.951 1281.4 420.186 1274.77 425.698C1271.34 428.557 1263.02 434.722 1256.3 439.399C1249.57 444.076 1240.47 451.101 1236.07 455.01C1226.92 463.139 1223.75 465.464 1222.93 464.647C1222.61 464.331 1223.34 461.016 1224.55 457.282C1226.61 450.908 1229.53 438.869 1231.8 427.451C1232.34 424.701 1233.36 420.426 1234.06 417.951C1234.76 415.476 1235.64 410.976 1236.01 407.951C1237.07 399.253 1242.64 374.27 1249.28 348.451C1251.69 339.101 1254.33 327.626 1255.16 322.951C1255.98 318.276 1256.85 313.889 1257.08 313.201C1257.82 311.006 1260.18 311.837 1266.2 316.423ZM1592.07 318.716C1596.53 321.164 1607.49 326.035 1612.61 327.848C1615.61 328.909 1621.22 330.964 1625.07 332.415C1631.76 334.938 1647.73 340.654 1654.07 342.798C1655.72 343.355 1663.59 345.875 1671.57 348.398C1679.54 350.92 1687.42 353.457 1689.07 354.036C1690.72 354.616 1694.32 355.779 1697.07 356.622C1699.82 357.465 1702.52 358.5 1703.07 358.922C1703.62 359.344 1706.54 360.238 1709.57 360.908C1712.59 361.578 1716.54 362.789 1718.34 363.598L1721.62 365.069L1719.41 368.26C1718.2 370.015 1714 375.051 1710.1 379.451C1706.19 383.851 1701.43 389.471 1699.53 391.939C1690.15 404.096 1670.83 424.055 1649.07 444.068C1640.24 452.187 1620.1 465.334 1606.75 471.699C1600.33 474.764 1594.52 477.382 1593.86 477.517C1593.2 477.651 1590.34 478.53 1587.51 479.47C1578.35 482.513 1579.08 489.65 1579 396.062L1578.93 314.245L1584.5 315.932C1587.56 316.86 1590.97 318.113 1592.07 318.716ZM915.993 321.834C916.699 322.975 930.602 329.643 937.066 331.941C939.816 332.918 947.36 336.245 953.83 339.334C960.3 342.424 965.857 344.951 966.179 344.951C966.501 344.951 968.182 345.56 969.915 346.304C971.648 347.049 975.541 348.69 978.566 349.952C981.591 351.214 986.316 353.235 989.066 354.444C991.816 355.653 1000.59 359.439 1008.57 362.857C1016.54 366.275 1028.02 371.489 1034.07 374.443C1040.12 377.398 1047.66 380.678 1050.83 381.734C1054 382.789 1056.81 383.864 1057.07 384.122C1057.7 384.752 1048.1 392.968 1042.94 396.223C1040.66 397.654 1034.68 402.678 1029.63 407.388C1024.59 412.098 1020.06 415.951 1019.57 415.951C1019.07 415.951 1015.72 418.184 1012.11 420.914C998.096 431.525 972.468 446.23 957.927 452.006C953.684 453.692 947.701 456.317 944.631 457.84C941.561 459.363 935.903 461.571 932.058 462.746C928.212 463.921 923.283 465.798 921.105 466.917C915.136 469.982 913.46 469.682 914.309 465.701C914.691 463.913 914.909 458.851 914.794 454.451C914.679 450.051 914.355 418.214 914.072 383.701C913.598 325.704 913.827 318.329 915.993 321.834ZM1617.88 390.451C1617.88 393.751 1618.07 394.98 1618.29 393.183C1618.51 391.386 1618.51 388.686 1618.28 387.183C1618.05 385.68 1617.87 387.151 1617.88 390.451ZM1617.85 401.451C1617.86 404.201 1618.05 405.207 1618.28 403.687C1618.51 402.167 1618.51 399.917 1618.27 398.687C1618.03 397.457 1617.84 398.701 1617.85 401.451ZM2107.99 458.56C2107.82 485.294 2107.39 507.457 2107.04 507.81C2106.33 508.521 2018.56 509.712 2018.56 509.011C2018.57 508.769 2020.98 506.294 2023.93 503.511C2026.88 500.728 2032.84 494.191 2037.18 488.984C2044.94 479.666 2054.24 469.33 2065.61 457.379C2068.79 454.04 2074.07 447.965 2077.36 443.879C2080.64 439.794 2085.66 434.201 2088.52 431.451C2091.38 428.701 2096.02 423.526 2098.83 419.951C2102.86 414.812 2107.22 410.161 2108.18 409.973C2108.24 409.961 2108.16 431.825 2107.99 458.56ZM1320.98 428.718C1324.88 431.305 1331.39 436.688 1335.45 440.678L1342.83 447.933L1342.37 474.437C1342.12 489.014 1341.72 501.133 1341.48 501.369C1340.5 502.352 1248.42 500.205 1247.39 499.174C1246.63 498.42 1248.23 496.33 1252.83 492.022C1256.41 488.675 1261.51 482.677 1264.18 478.693C1269.94 470.067 1276.64 460.842 1278.15 459.451C1278.75 458.901 1283.23 453.951 1288.12 448.451C1293 442.951 1297.49 438.001 1298.1 437.451C1298.72 436.901 1301.43 433.751 1304.14 430.451C1306.85 427.151 1309.52 424.118 1310.07 423.712C1311.45 422.685 1312.86 423.332 1320.98 428.718ZM808.138 502.135C807.755 503.409 807.054 519.076 806.58 536.951C805.708 569.811 803.597 592.554 800.082 606.951C795.321 626.458 793.178 633.308 788.98 642.451C788.223 644.101 786.276 649.276 784.653 653.951C783.031 658.626 780.575 664.476 779.195 666.951C777.816 669.426 774.983 674.826 772.9 678.951C762.909 698.735 740.382 729.321 726.499 741.951C721.361 746.626 715.111 752.386 712.611 754.751C698.648 767.96 661.072 792.741 641.662 801.541C637.484 803.435 632.491 805.898 630.566 807.014C622.899 811.46 608.732 818.165 596.72 823.035C589.76 825.857 582.178 829.017 579.871 830.058C577.564 831.099 575.44 831.951 575.153 831.951C574.172 831.951 552.086 840.769 545.566 843.764C541.991 845.406 536.816 847.503 534.066 848.423C531.316 849.344 526.816 851.233 524.066 852.621C521.316 854.01 515.916 856.404 512.066 857.941C508.216 859.478 502.591 861.89 499.566 863.3C496.541 864.71 491.615 866.811 488.619 867.97C482.274 870.424 454.318 884.093 447.156 888.243C444.455 889.808 438.155 893.161 433.156 895.696C428.156 898.23 422.941 901.066 421.566 901.996C420.191 902.927 415.466 906.067 411.066 908.973C398.439 917.313 384.777 928.8 377.856 936.897C372.08 943.655 367.488 950.927 358.785 967.1C355.458 973.281 354.258 975.266 347.991 984.951C345.677 988.526 341.736 995.416 339.231 1000.26C333.439 1011.47 325.105 1023.09 315.584 1033.24C307.849 1041.49 294.62 1052.12 289.177 1054.45C281.607 1057.7 278.829 1058.79 275.291 1059.92C273.214 1060.58 270.289 1062.14 268.791 1063.38C266.089 1065.62 262.778 1066.62 255.066 1067.53C252.866 1067.79 249.941 1068.4 248.566 1068.89C247.191 1069.37 242.466 1070.29 238.066 1070.92C233.666 1071.55 228.661 1072.28 226.943 1072.53C220.411 1073.5 190.562 1069.3 187.066 1066.92C183.307 1064.37 172.304 1059.04 168.536 1057.95C164.826 1056.88 163.239 1055.6 159.778 1050.9C153.366 1042.19 152.22 1038.78 152.231 1028.45C152.236 1023.5 152.446 1017.2 152.697 1014.45C153.181 1009.15 151.968 1000.02 150.59 998.602C150.138 998.135 149.439 999.254 149.036 1001.09C148.633 1002.92 147.576 1005.53 146.685 1006.89C144.531 1010.18 143.866 1029.82 145.583 1039.45C147.632 1050.94 154.836 1063.59 164.969 1073.49C170.271 1078.67 172.004 1079.78 186.573 1087.32C202.486 1095.56 226.888 1098.34 249.566 1094.5C260.57 1092.63 276.972 1087.05 285.213 1082.37C287.882 1080.86 292.316 1078.52 295.066 1077.19C305.071 1072.32 323.047 1060.76 329.066 1055.31C331.266 1053.32 335.733 1049.39 338.992 1046.57C347.98 1038.8 357.454 1029.04 376.971 1007.42C394.473 988.038 422.873 960.561 430.709 955.43C440.78 948.835 446.701 943.979 446.019 942.874C445.705 942.367 445.94 941.951 446.542 941.951C447.326 941.951 447.333 941.385 446.566 939.951C445.115 937.24 443.494 937.432 439.232 940.819C437.247 942.396 432.348 945.639 428.345 948.024C424.341 950.409 418.366 954.406 415.067 956.906C411.768 959.406 408.843 961.321 408.567 961.161C408.291 961.002 407.922 961.79 407.746 962.911C407.571 964.033 407.043 964.951 406.573 964.951C406.104 964.951 404.412 966.188 402.813 967.701C396.525 973.65 393.701 975.951 392.691 975.951C392.111 975.951 391.14 976.878 390.533 978.012C389.21 980.485 386.924 980.015 387.412 977.37C387.602 976.339 389.065 974.008 390.662 972.189C392.259 970.37 393.566 968.496 393.566 968.026C393.566 966.516 404.912 955.328 409.566 952.249C415.475 948.338 425.062 942.878 430.066 940.572C432.266 939.559 434.847 938.329 435.802 937.84C436.757 937.351 438.297 936.951 439.224 936.951C440.15 936.951 441.718 936.219 442.707 935.323C443.696 934.428 445.982 933.525 447.786 933.316C452.853 932.729 457.332 931.004 457.946 929.403C458.253 928.604 459.616 927.951 460.976 927.951C462.335 927.951 463.709 927.528 464.029 927.012C464.348 926.495 463.812 926.105 462.838 926.145C461.863 926.185 460.313 925.898 459.393 925.507C458.258 925.025 457.377 925.436 456.656 926.783C455.967 928.07 454.917 928.594 453.677 928.27C451.228 927.629 440.928 929.737 437.232 931.634C435.673 932.435 432.973 933.117 431.232 933.15C428.543 933.201 422.718 935.952 414.094 941.242C407.99 944.986 396.553 952.669 393.272 955.229C391.185 956.857 388.26 958.253 386.772 958.331C383.488 958.502 380.508 960.524 378.121 964.201C376.196 967.166 373.566 967.888 373.566 965.451C373.566 964.626 373.965 963.951 374.453 963.951C374.941 963.951 375.513 960.892 375.724 957.152C376.101 950.495 376.24 950.193 382.422 942.627C389.42 934.063 396.873 927.794 412.566 917.271C434.808 902.358 456.595 890.305 474.566 882.971C483.823 879.193 488.447 877.065 505.227 868.856C514.115 864.508 521.765 860.949 522.227 860.948C523.436 860.943 538.072 855.056 546.566 851.158C549.041 850.022 554.216 847.931 558.066 846.512C561.916 845.093 565.966 843.539 567.066 843.06C568.166 842.58 572.441 840.76 576.566 839.015C588.991 833.757 589.931 833.352 593.566 831.685C595.491 830.803 600.441 828.649 604.566 826.898C615.818 822.124 620.457 820.069 627.066 816.932C630.366 815.366 638.82 811.374 645.852 808.061C652.884 804.747 659.999 801.067 661.663 799.882C663.327 798.697 666.799 796.606 669.378 795.236C676.795 791.294 695.675 778.495 700.066 774.431C706.212 768.742 723.271 753.933 728.967 749.34C731.771 747.079 736.541 742.155 739.566 738.399C742.591 734.642 747.586 728.813 750.666 725.446C764.39 710.442 783.172 676.795 792.527 650.451C802.037 623.674 805.758 609.367 808.034 590.827C808.802 584.57 809.936 575.588 810.554 570.866C812.027 559.612 811.534 502.515 809.95 500.933C809.129 500.114 808.65 500.431 808.138 502.135ZM2109.88 564.451C2109.78 566.101 2109.68 588.301 2109.66 613.784C2109.59 690.073 2111.46 726.069 2116.62 747.588C2117.69 752.063 2118.57 756.374 2118.57 757.168C2118.57 759.338 2129.27 785.582 2132.31 790.851C2137.11 799.184 2148.33 815.37 2152.49 819.951C2158.31 826.353 2155.72 826.289 2142.21 819.696C2136.08 816.703 2129.72 813.94 2128.07 813.556C2123.45 812.48 2090.11 795.355 2080.57 789.159C2060.88 776.376 2050.53 768.971 2044.57 763.396C2042.09 761.084 2037.35 756.951 2034.03 754.213C2019.17 741.96 1985.56 705.638 1981.11 697.035C1980.33 695.531 1977.61 691.189 1975.06 687.385C1970.23 680.182 1954.81 649.77 1952.03 641.951C1951.15 639.476 1949.63 634.069 1948.66 629.935C1947.68 625.802 1946.42 621.527 1945.84 620.435C1945.27 619.344 1944.47 616.426 1944.07 613.951C1943.67 611.476 1942.75 608.023 1942.04 606.277C1941.32 604.532 1940.45 599.807 1940.1 595.777C1939.75 591.748 1939.05 587.101 1938.53 585.451C1938.02 583.801 1937.48 577.951 1937.33 572.451L1937.07 562.451L1965.57 561.933C1981.24 561.648 2020.17 561.423 2052.07 561.433L2110.07 561.451L2109.88 564.451ZM1814.22 571.659C1812.79 572.026 1812.5 572.749 1812.96 574.793C1813.28 576.255 1814.04 581.276 1814.64 585.951C1817.21 605.829 1832.54 655.082 1842.5 675.451C1851.31 693.462 1869.27 720.292 1883.91 737.295C1897.67 753.284 1916.04 769.911 1930.54 779.504C1934.66 782.225 1938.93 785.267 1940.04 786.264C1941.16 787.262 1946.03 790.412 1950.87 793.264C1955.72 796.117 1962.92 800.394 1966.87 802.768C1980.49 810.938 1997.65 818.948 2013.57 824.555C2018.79 826.396 2027.08 829.989 2031.99 832.538C2036.9 835.087 2045.45 838.941 2050.99 841.103C2056.53 843.265 2065.79 847.104 2071.57 849.634C2087.17 856.474 2087.82 856.735 2091.02 857.532C2092.64 857.937 2096.46 859.611 2099.52 861.253C2107.81 865.715 2116.5 869.952 2117.33 869.94C2120.37 869.897 2163.36 890.649 2187.07 903.604C2211.8 917.121 2218.37 922.02 2232.03 937.132C2241.37 947.463 2247.49 957.689 2251.44 969.573C2253.25 975.006 2255.74 981.476 2256.98 983.951C2258.22 986.426 2259.56 989.774 2259.96 991.39C2260.37 993.006 2261.57 995.551 2262.63 997.044C2263.7 998.538 2264.57 1000.02 2264.57 1000.33C2264.57 1000.65 2266.36 1003.28 2268.56 1006.18C2270.76 1009.08 2272.56 1012.01 2272.56 1012.7C2272.56 1013.39 2273.19 1013.95 2273.95 1013.95C2276.2 1013.95 2276.47 1017.55 2274.45 1020.61C2273.14 1022.6 2272.58 1022.94 2272.57 1021.76C2272.57 1020.82 2269.03 1016.32 2264.7 1011.76C2257.61 1004.27 2247.38 992.165 2242.07 984.972C2237.7 979.066 2233.47 975.04 2221.52 965.434C2209.34 955.642 2195.41 944.887 2191.18 942.012C2190.02 941.22 2188.17 939.806 2187.07 938.87C2185.21 937.293 2180.11 935.624 2176.57 935.438C2175.74 935.394 2173.82 934.739 2172.29 933.982C2170.06 932.878 2169.27 932.854 2168.29 933.86C2167.32 934.856 2167.78 935.719 2170.53 938.033C2172.43 939.638 2174.36 940.951 2174.82 940.951C2175.68 940.951 2181.05 944.559 2183.34 946.686C2185.89 949.043 2196.09 956.613 2201.59 960.222C2208.16 964.535 2232.07 988.588 2236.01 994.844C2237.53 997.26 2242.21 1002.9 2246.42 1007.38C2250.62 1011.87 2255.39 1017.54 2257.02 1019.99C2261.44 1026.66 2281.09 1045.79 2296.34 1058.27C2309.98 1069.43 2340.18 1086.35 2352.57 1089.77C2371.94 1095.13 2390.22 1096.66 2407.62 1094.41C2420.32 1092.76 2427.3 1090.49 2441.12 1083.51C2452.97 1077.52 2469.07 1062.7 2473.87 1053.36C2477.63 1046.02 2480.72 1033.72 2480.76 1025.95C2480.82 1014.3 2475.68 1000.43 2472.49 1003.62C2471.95 1004.17 2471.41 1011.9 2471.29 1021.05C2471.07 1037.42 2471.05 1037.52 2467.78 1044.17C2464.53 1050.77 2458.28 1057.43 2452.68 1060.26C2451.24 1060.99 2449.17 1062.06 2448.07 1062.63C2444.23 1064.65 2439.49 1065.8 2436.55 1065.42C2434.71 1065.19 2433.69 1065.48 2433.83 1066.19C2434.07 1067.33 2427.23 1068.48 2406.07 1070.85C2373.37 1074.51 2354.61 1069.73 2330.32 1051.53C2326.6 1048.75 2323.57 1046.13 2323.57 1045.71C2323.57 1045.29 2322.99 1044.95 2322.28 1044.95C2321.57 1044.95 2316.14 1040.14 2310.21 1034.25C2301.93 1026.03 2297.21 1020.18 2289.81 1009C2284.52 1001 2278.97 992.876 2277.47 990.951C2275.98 989.026 2271.78 981.697 2268.15 974.664C2261.02 960.873 2250.68 944.436 2244.14 936.515C2239.17 930.494 2218.72 911.951 2217.05 911.951C2215.34 911.951 2204.9 906.311 2199.5 902.471C2192.41 897.42 2122.13 862.951 2118.93 862.951C2118.17 862.951 2112.04 860.302 2105.3 857.065C2098.57 853.827 2091.94 850.841 2090.57 850.43C2089.19 850.018 2087.18 849.067 2086.09 848.316C2085.01 847.565 2083.56 846.951 2082.87 846.951C2082.18 846.951 2075.5 844.026 2068.03 840.451C2060.56 836.876 2053.82 833.951 2053.06 833.951C2052.3 833.951 2051.44 833.556 2051.14 833.074C2050.84 832.592 2048.51 831.672 2045.97 831.03C2043.42 830.389 2038.12 828.273 2034.2 826.328C2030.28 824.384 2020.09 819.956 2011.57 816.488C1996.98 810.557 1990.06 807.209 1986.57 804.402C1985.74 803.739 1981.02 801.104 1976.07 798.547C1971.12 795.99 1965.45 792.897 1963.48 791.674C1961.5 790.451 1957.45 788.027 1954.48 786.287C1948.22 782.63 1933.98 772.997 1922.53 764.683C1907.38 753.682 1882.75 728.35 1873.21 713.951C1871.2 710.926 1867.28 705.301 1864.5 701.451C1858.95 693.766 1841.08 658.269 1837.57 647.951C1836.35 644.376 1834.98 640.551 1834.52 639.451C1834.06 638.351 1833.4 635.876 1833.06 633.951C1832.72 632.026 1831.38 627.301 1830.09 623.451C1826.99 614.201 1824.85 606.363 1824.1 601.451C1823.76 599.251 1822.53 593.218 1821.37 588.043C1819.74 580.807 1819.49 577.999 1820.29 575.875C1821.87 571.691 1819.76 570.23 1814.22 571.659ZM542.265 886.917C537.251 887.888 535.404 889.745 537.901 891.305C542.743 894.331 544.015 896.003 542.868 897.839C541.925 899.348 542.245 899.912 544.908 901.436C556.331 907.973 560.455 911.926 561.091 916.946C561.581 920.817 560.037 920.8 556.002 916.889C552.59 913.582 547.15 912.398 542.862 914.029L540.474 914.936L544.345 918.694C546.473 920.76 550.555 924.026 553.416 925.951C558.867 929.619 566.433 936.728 575.384 946.591C579.414 951.032 582.193 955.721 586.858 965.951L593.014 979.451L593.276 992.951C593.527 1005.87 592.46 1016.33 590.534 1019.82C590.038 1020.72 588.435 1024.6 586.972 1028.45C585.509 1032.3 583.468 1036.38 582.439 1037.51C581.409 1038.65 580.566 1040.19 580.566 1040.94C580.566 1041.69 579.104 1043.79 577.316 1045.6C575.528 1047.41 573.142 1049.92 572.012 1051.17C567.742 1055.91 558.29 1063.55 553.477 1066.16C550.727 1067.66 547.26 1069.71 545.771 1070.73C544.283 1071.75 541.041 1073.14 538.566 1073.83C536.091 1074.51 532.716 1075.54 531.066 1076.11C510.227 1083.34 494.248 1085.38 476.566 1083.05C459.701 1080.83 454.849 1079.33 444.12 1073.02C432.334 1066.08 428.415 1064.28 423.316 1063.46C421.254 1063.13 419.566 1062.42 419.566 1061.89C419.566 1061.36 414.79 1056.19 408.953 1050.41C399.484 1041.03 392.316 1035.95 388.553 1035.95C386.962 1035.95 388.141 1039.09 391.883 1044.83C393.634 1047.51 397.886 1054.18 401.333 1059.66C411.666 1076.08 428.777 1091.2 445.681 1098.84C461.822 1106.13 479.72 1109.88 498.566 1109.9C530.363 1109.94 555.691 1102.93 580.268 1087.27C583.129 1085.44 585.72 1083.95 586.027 1083.95C586.688 1083.95 591.731 1079.66 596.011 1075.45C618.046 1053.78 632.159 1021.16 630.184 996.468C629.395 986.608 626.951 972.538 625.582 969.981C625.023 968.937 624.566 967.351 624.566 966.457C624.566 965.563 622.59 959.909 620.175 953.894C612.402 934.537 602.006 921.702 580.566 904.99C564.118 892.17 560.992 890.201 553.431 887.902C549.93 886.837 546.841 886.015 546.566 886.074C546.291 886.133 544.356 886.512 542.265 886.917ZM573.316 923.219C575.02 924.551 574.89 925.951 573.062 925.951C570.603 925.951 564.888 922.485 565.302 921.244C565.71 920.018 570.839 921.282 573.316 923.219ZM2203.2 939.451C2202.89 940.276 2203.09 940.951 2203.66 940.951C2204.22 940.951 2204.42 941.37 2204.11 941.882C2203.79 942.394 2203.96 943.077 2204.48 943.4C2205.01 943.725 2205.39 942.639 2205.35 940.969C2205.26 937.753 2204.15 936.973 2203.2 939.451ZM2214 942.844C2214.3 943.336 2213.43 944.019 2212.06 944.363C2208.86 945.166 2208.86 947.31 2212.07 948.769C2214.21 949.744 2214.57 949.66 2214.58 948.18C2214.59 947.229 2214.86 945.438 2215.2 944.201C2215.57 942.802 2215.35 941.951 2214.62 941.951C2213.98 941.951 2213.7 942.353 2214 942.844ZM2220.14 948.798C2217.97 953.011 2219.82 957.469 2223.02 955.701C2223.27 955.563 2225.18 957.037 2227.27 958.975C2229.36 960.913 2232.53 963.514 2234.32 964.755C2237.51 966.97 2237.57 966.974 2237.57 964.981C2237.57 963.864 2236.94 962.951 2236.17 962.951C2235.41 962.951 2234.5 961.83 2234.16 960.46C2233.81 959.09 2231.92 956.502 2229.95 954.71C2227.98 952.918 2225.72 950.214 2224.94 948.701C2223.13 945.208 2221.99 945.231 2220.14 948.798ZM503.876 961.833L500.685 962.451L505.615 965.451C508.326 967.101 510.782 969.169 511.073 970.047C511.365 970.924 514.131 974.524 517.22 978.047C523.374 985.063 530.654 999.194 533.023 1008.72C534.87 1016.15 536.942 1022.66 537.7 1023.42C538.203 1023.92 539.724 1017.81 539.932 1014.45C540.048 1012.59 537.37 997.616 536.547 995.527C535.061 991.755 534.267 989.467 534.001 988.186C532.754 982.177 520.816 968.412 513.054 964.031C510.052 962.337 507.477 961.01 507.331 961.083C507.185 961.155 505.63 961.493 503.876 961.833ZM382.066 985.951C382.406 986.501 382.207 986.951 381.625 986.951C381.043 986.951 380.566 986.501 380.566 985.951C380.566 985.401 380.764 984.951 381.007 984.951C381.25 984.951 381.726 985.401 382.066 985.951ZM2276.37 1025.48C2276.06 1025.78 2275.51 1025.23 2275.13 1024.24C2274.59 1022.82 2274.7 1022.7 2275.69 1023.68C2276.37 1024.36 2276.68 1025.17 2276.37 1025.48Z" fill="#DCB596"/>
</svg>
